<svg width="30" height="40" viewBox="0 0 30 40" fill="none" xmlns="http://www.w3.org/2000/svg">
<g id="location-dot-solid 1" clip-path="url(#clip0_430_93)">
<path id="Vector" d="M29 15C29 16.5102 28.4876 18.4052 27.5879 20.5364C26.6952 22.651 25.4552 24.92 24.0775 27.1549C21.3228 31.6235 18.0649 35.8795 16.0713 38.3745C15.5107 39.0705 14.4891 39.0705 13.9285 38.3744C11.9349 35.8793 8.67718 31.6234 5.92254 27.1549C4.54476 24.92 3.30483 22.651 2.41212 20.5364C1.51242 18.4052 1 16.5102 1 15C1 7.27103 7.27103 1 15 1C22.729 1 29 7.27103 29 15ZM19.2426 10.7574C18.1174 9.63214 16.5913 9 15 9C13.4087 9 11.8826 9.63214 10.7574 10.7574C9.63214 11.8826 9 13.4087 9 15C9 16.5913 9.63214 18.1174 10.7574 19.2426C11.8826 20.3679 13.4087 21 15 21C16.5913 21 18.1174 20.3679 19.2426 19.2426C20.3679 18.1174 21 16.5913 21 15C21 13.4087 20.3679 11.8826 19.2426 10.7574Z" fill="#E74D3D" stroke="black" stroke-width="2"/>
</g>
<defs>
<clipPath id="clip0_430_93">
<rect width="30" height="40" fill="white"/>
</clipPath>
</defs>
</svg>
