<svg width="16" height="12" viewBox="0 0 16 12" fill="none" xmlns="http://www.w3.org/2000/svg">
<g id="maestro-card 1" clip-path="url(#clip0_444_3138)">
<path id="Vector" d="M15.2775 7.72757V7.54248H15.2312L15.1772 7.66587L15.1233 7.54248H15.077V7.72757H15.1078V7.58875L15.1618 7.71215H15.2004L15.2544 7.58875V7.72757H15.2775ZM14.969 7.72757V7.57333H15.0307V7.54248H14.8765V7.57333H14.9382V7.72757H14.969Z" fill="#00A2E5"/>
<path id="Vector_2" d="M9.79431 8.52178H5.62207V1.02563H9.79431V8.52178Z" fill="#7375CF"/>
<path id="Vector_3" d="M5.89203 4.77388C5.89203 3.2546 6.60154 1.89727 7.71208 1.02581C6.90231 0.385704 5.87661 0.0078125 4.76607 0.0078125C2.13625 0.0078125 0 2.14406 0 4.77388C0 7.4037 2.13625 9.53995 4.76607 9.53995C5.87661 9.53995 6.90231 9.16205 7.71208 8.52195C6.60154 7.65049 5.89203 6.29316 5.89203 4.77388Z" fill="#EB001B"/>
<path id="Vector_4" d="M15.424 4.77388C15.424 7.4037 13.2877 9.53995 10.6579 9.53995C9.54739 9.53995 8.52168 9.16205 7.71191 8.52195C8.82245 7.65049 9.53197 6.29316 9.53197 4.77388C9.53197 3.2546 8.82245 1.89727 7.71191 1.02581C8.52168 0.385704 9.54739 0.0078125 10.6579 0.0078125C13.2877 0.0078125 15.424 2.14406 15.424 4.77388Z" fill="#00A2E5"/>
<path id="Vector_5" d="M11.198 10.6427C11.2519 10.6427 11.3368 10.6505 11.3908 10.6736L11.3059 10.9358C11.2442 10.9127 11.1903 10.905 11.1363 10.905C10.9589 10.905 10.8663 11.0206 10.8663 11.2289V11.9384H10.5887V10.6736H10.8586V10.8278C10.9358 10.7122 11.0437 10.6427 11.198 10.6427ZM10.18 10.9204H9.73267V11.4911C9.73267 11.6145 9.77894 11.6993 9.91776 11.6993C9.98717 11.6993 10.0797 11.6762 10.1645 11.6299L10.2417 11.869C10.1568 11.9307 10.018 11.9692 9.89462 11.9692C9.57072 11.9692 9.45503 11.7918 9.45503 11.4988V10.9204H9.20054V10.6659H9.45503V10.2803H9.73267V10.6659H10.18V10.9204ZM6.65555 11.1903C6.6864 11.0052 6.79437 10.8818 6.99488 10.8818C7.17226 10.8818 7.28794 10.9898 7.31879 11.1903H6.65555ZM7.60413 11.306C7.60413 10.9127 7.35735 10.6427 7.00259 10.6427C6.63241 10.6427 6.3702 10.9127 6.3702 11.306C6.3702 11.707 6.64012 11.9692 7.01802 11.9692C7.21082 11.9692 7.38048 11.9229 7.53473 11.7918L7.39591 11.5913C7.28794 11.6762 7.15683 11.7224 7.02573 11.7224C6.84835 11.7224 6.6864 11.6376 6.64784 11.4139H7.58871C7.59642 11.3754 7.60413 11.3445 7.60413 11.306ZM8.81493 10.9975C8.73781 10.9512 8.58357 10.8895 8.42161 10.8895C8.26737 10.8895 8.18254 10.9435 8.18254 11.0361C8.18254 11.1209 8.27509 11.144 8.39848 11.1595L8.52958 11.1749C8.80722 11.2134 8.96917 11.3291 8.96917 11.5528C8.96917 11.7918 8.76095 11.9692 8.39077 11.9692C8.18254 11.9692 7.98974 11.9152 7.84321 11.8073L7.97431 11.5913C8.06686 11.6607 8.20568 11.7224 8.39848 11.7224C8.58357 11.7224 8.68383 11.6684 8.68383 11.5682C8.68383 11.4988 8.61442 11.4602 8.46018 11.4371L8.32907 11.4217C8.04372 11.3831 7.88948 11.252 7.88948 11.0515C7.88948 10.797 8.09771 10.6427 8.4139 10.6427C8.61442 10.6427 8.79951 10.689 8.93061 10.7738L8.81493 10.9975ZM12.2082 10.8972C12.1543 10.8972 12.1003 10.905 12.054 10.9281C12.0077 10.9512 11.9615 10.9744 11.9306 11.0129C11.8998 11.0515 11.8689 11.09 11.8458 11.144C11.8226 11.1903 11.8149 11.252 11.8149 11.306C11.8149 11.3677 11.8226 11.4217 11.8458 11.4679C11.8689 11.5142 11.8921 11.5605 11.9306 11.599C11.9692 11.6376 12.0077 11.6607 12.054 11.6839C12.1003 11.707 12.1543 11.7147 12.2082 11.7147C12.2622 11.7147 12.3162 11.707 12.3625 11.6839C12.4088 11.6607 12.455 11.6376 12.4859 11.599C12.5244 11.5605 12.5476 11.5219 12.5707 11.4679C12.5939 11.4217 12.6016 11.36 12.6016 11.306C12.6016 11.2443 12.5939 11.1903 12.5707 11.144C12.5476 11.0978 12.5244 11.0515 12.4859 11.0129C12.4473 10.9744 12.4088 10.9512 12.3625 10.9281C12.3162 10.9127 12.2622 10.8972 12.2082 10.8972ZM12.2082 10.6427C12.3085 10.6427 12.401 10.6582 12.4782 10.6967C12.563 10.7276 12.6324 10.7738 12.6941 10.8355C12.7558 10.8972 12.8021 10.9666 12.8406 11.0438C12.8715 11.1286 12.8946 11.2134 12.8946 11.306C12.8946 11.3985 12.8792 11.4911 12.8406 11.5682C12.8098 11.653 12.7558 11.7224 12.6941 11.7764C12.6324 11.8381 12.563 11.8844 12.4782 11.9152C12.3933 11.9461 12.3008 11.9692 12.2082 11.9692C12.108 11.9692 12.0154 11.9538 11.9383 11.9152C11.8535 11.8844 11.7841 11.8381 11.7224 11.7764C11.6607 11.7147 11.6144 11.6453 11.5759 11.5682C11.545 11.4834 11.5219 11.3985 11.5219 11.306C11.5219 11.2134 11.5373 11.1209 11.5759 11.0438C11.6067 10.9589 11.6607 10.8895 11.7224 10.8355C11.7841 10.7738 11.8535 10.7276 11.9383 10.6967C12.0154 10.6582 12.108 10.6427 12.2082 10.6427ZM5.05144 11.306C5.05144 11.0823 5.19796 10.8972 5.43704 10.8972C5.6684 10.8972 5.81493 11.0746 5.81493 11.306C5.81493 11.5373 5.66069 11.707 5.43704 11.707C5.19796 11.707 5.05144 11.5296 5.05144 11.306ZM6.07714 11.306V10.6736H5.79951V10.8278C5.71467 10.7122 5.58357 10.6427 5.39848 10.6427C5.04372 10.6427 4.76609 10.9204 4.76609 11.306C4.76609 11.6916 5.04372 11.9692 5.39848 11.9692C5.57586 11.9692 5.70696 11.8998 5.79951 11.7841V11.9384H6.07714V11.306ZM4.52701 11.9384V11.144C4.52701 10.8433 4.33421 10.6427 4.02573 10.6427C3.86377 10.6427 3.69411 10.689 3.57843 10.8664C3.49359 10.7276 3.35478 10.6427 3.16198 10.6427C3.03087 10.6427 2.89205 10.6813 2.7918 10.8278V10.6736H2.51416V11.9384H2.7918V11.2366C2.7918 11.0206 2.91519 10.8972 3.10028 10.8972C3.28537 10.8972 3.37791 11.0129 3.37791 11.2289V11.9307H3.65555V11.2289C3.65555 11.0129 3.78665 10.8895 3.96403 10.8895C4.14912 10.8895 4.24167 11.0052 4.24167 11.2211V11.9229H4.52701V11.9384ZM13.1877 11.8381V11.869H13.2185C13.2262 11.869 13.234 11.869 13.234 11.8613C13.2417 11.8613 13.2417 11.8535 13.2417 11.8458C13.2417 11.8381 13.2417 11.8381 13.234 11.8381C13.234 11.8381 13.2262 11.8304 13.2185 11.8304H13.1877V11.8381ZM13.2185 11.8227C13.234 11.8227 13.2417 11.8227 13.2494 11.8304C13.2571 11.8381 13.2648 11.8458 13.2648 11.8613C13.2648 11.869 13.2648 11.8767 13.2571 11.8844C13.2494 11.8921 13.2417 11.8921 13.2262 11.8921L13.2648 11.9384H13.234L13.1954 11.8921H13.1877V11.9384H13.1645V11.8227H13.2185ZM13.2108 11.9769C13.2262 11.9769 13.234 11.9769 13.2494 11.9692C13.2648 11.9615 13.2725 11.9538 13.2802 11.9461C13.2879 11.9384 13.2957 11.9307 13.3034 11.9152C13.3111 11.8998 13.3111 11.8921 13.3111 11.8767C13.3111 11.8613 13.3111 11.8535 13.3034 11.8381C13.2957 11.8227 13.2879 11.815 13.2802 11.8073C13.2725 11.7996 13.2648 11.7918 13.2494 11.7841C13.2417 11.7764 13.2262 11.7764 13.2108 11.7764C13.1954 11.7764 13.1877 11.7764 13.1723 11.7841C13.1568 11.7918 13.1491 11.7996 13.1414 11.8073C13.1337 11.815 13.126 11.8304 13.1183 11.8381C13.1106 11.8535 13.1106 11.8613 13.1106 11.8767C13.1106 11.8921 13.1106 11.8998 13.1183 11.9152C13.126 11.9307 13.1337 11.9384 13.1414 11.9461C13.1491 11.9538 13.1645 11.9615 13.1723 11.9692C13.1877 11.9769 13.1954 11.9769 13.2108 11.9769ZM13.2108 11.7533C13.2262 11.7533 13.2417 11.7533 13.2571 11.761C13.2725 11.7687 13.2879 11.7764 13.2956 11.7841C13.3034 11.7918 13.3188 11.8073 13.3265 11.8227C13.3342 11.8381 13.3342 11.8535 13.3342 11.869C13.3342 11.8844 13.3342 11.8998 13.3265 11.9152C13.3188 11.9307 13.3111 11.9461 13.2956 11.9538C13.2802 11.9615 13.2725 11.9769 13.2571 11.9846C13.2417 11.9924 13.2262 11.9924 13.2108 11.9924C13.1954 11.9924 13.1723 11.9924 13.1568 11.9846C13.1414 11.9769 13.126 11.9692 13.1183 11.9538C13.1106 11.9461 13.0951 11.9307 13.0874 11.9152C13.0797 11.8998 13.0797 11.8844 13.0797 11.869C13.0797 11.8535 13.0797 11.8381 13.0874 11.8227C13.0951 11.8073 13.1028 11.7918 13.1183 11.7841C13.126 11.7764 13.1414 11.761 13.1568 11.761C13.1723 11.7533 13.1954 11.7533 13.2108 11.7533Z" fill="black"/>
</g>
<defs>
<clipPath id="clip0_444_3138">
<rect width="15.4242" height="12" fill="white"/>
</clipPath>
</defs>
</svg>
