<svg width="247" height="183" viewBox="0 0 247 183" fill="none" xmlns="http://www.w3.org/2000/svg">
<g id="undraw_undraw_flying_drone_u3r2_-3-_egfy 1">
<g clip-path="url(#clip0_257_291)">
<g id="Group">
<path id="uuid-9355c850-1a87-4a07-99bb-80cbbe234fdd-95-76" d="M133.452 104.431C136.851 103.012 140.229 103.925 140.997 106.469C141.765 109.014 139.631 112.226 136.23 113.645C134.878 114.234 133.426 114.433 131.995 114.227L117.527 120.025L115.358 111.982L129.851 107.12C130.852 105.898 132.086 104.976 133.452 104.431Z" fill="#FFB4B4"/>
<path id="Vector" d="M128.189 116.473L99.6336 132.053L99.5621 132.092L76.3446 115.419C74.2005 113.879 72.8973 111.196 72.8585 108.241C72.8201 105.287 74.0528 102.558 76.1561 100.941C78.791 98.9163 82.2155 99.1057 84.6772 101.412L101.797 117.455L126.058 106.979L128.189 116.473Z" fill="#E4E4E4"/>
</g>
<path id="Vector_2" d="M0 169.06C0 169.29 0.156838 169.474 0.352143 169.474H233.018C233.213 169.474 233.37 169.29 233.37 169.06C233.37 168.83 233.213 168.646 233.018 168.646H0.352143C0.156838 168.646 0 168.83 0 169.06Z" fill="#3F3D56"/>
<g id="Group_2">
<path id="Vector_3" d="M91.4496 104.365L93.3631 90.2995L80.4469 84.1108L78.5334 105.49L91.4496 104.365Z" fill="#FFB4B4"/>
<path id="Vector_4" d="M88.1856 94.821C95.46 94.821 101.357 87.8855 101.357 79.3303C101.357 70.775 95.46 63.8396 88.1856 63.8396C80.9112 63.8396 75.0142 70.775 75.0142 79.3303C75.0142 87.8855 80.9112 94.821 88.1856 94.821Z" fill="#FFB4B4"/>
</g>
<g id="Group_3">
<path id="Vector_5" d="M75.1113 180.212C75.9724 180.657 76.8927 181.082 77.881 181.485C92.6377 187.502 109.747 174.285 119.559 164.757C124.504 159.951 127.593 156.081 127.593 156.081L137.275 161.774L143.722 165.564H143.725L144.977 166.305C144.98 166.305 144.983 166.309 144.983 166.309L148.797 168.55L154.697 172.02L155.408 172.437L155.893 172.604L164.581 175.569L166.356 168.261C166.356 168.261 165.749 167.624 164.687 166.521C158.219 159.819 134.875 135.949 128.776 134.156C126.01 133.342 120.106 136.011 113.925 139.575C104.231 145.164 93.8598 152.949 93.8598 152.949L89.7171 145.989L75.4546 149.775L70.0425 151.212L66.7846 152.079C66.7846 152.079 56.6529 170.666 75.1113 180.212Z" fill="#2F2E41"/>
<path id="Vector_6" d="M163.989 167.217C163.989 167.217 166.06 164.781 167.244 165.825C168.428 166.869 169.611 168.261 169.611 168.261C169.611 168.261 178.784 168.957 179.08 174.177C179.376 179.397 172.866 181.137 172.866 181.137C172.866 181.137 151.561 183.225 151.561 179.745C151.561 176.265 154.698 172.02 154.698 172.02C154.698 172.02 164.877 170.001 163.989 167.217Z" fill="#2F2E41"/>
</g>
<g id="Group_4">
<path id="Vector_7" d="M75.1113 180.212C91.0309 173.332 104.808 156.081 104.808 156.081L119.559 164.757L131.913 172.02L132.623 172.437L141.796 175.569L143.572 168.261C143.572 168.261 142.965 167.624 141.903 166.521C140.796 165.376 139.195 163.726 137.275 161.774C130.96 155.357 121.16 145.637 113.925 139.575C104.231 145.164 93.8598 152.949 93.8598 152.949L89.7171 145.989L75.4546 149.775C72.7796 151.668 71.0752 152.949 71.0752 152.949L70.0425 151.212L66.7846 152.079C66.7846 152.079 56.6529 170.666 75.1113 180.212Z" fill="#2F2E41"/>
<path id="Vector_8" d="M141.204 167.217C141.204 167.217 143.276 164.781 144.459 165.825C145.643 166.869 146.826 168.261 146.826 168.261C146.826 168.261 155.999 168.957 156.295 174.177C156.591 179.397 150.081 181.137 150.081 181.137C150.081 181.137 128.776 183.225 128.776 179.745C128.776 176.265 131.913 172.02 131.913 172.02C131.913 172.02 142.092 170.001 141.204 167.217Z" fill="#2F2E41"/>
</g>
<path id="Vector_9" d="M68.3131 125.346C68.952 115.16 72.4681 105.333 78.2138 97.6746L78.2702 97.5995L93.2327 101.119L96.507 112.496C98.5933 119.746 98.0966 127.816 95.1441 134.636L91.4991 143.057L92.704 150.852L66.7913 152.252L66.6248 152.262L68.3131 125.346Z" fill="#E4E4E4"/>
<g id="Group_5">
<path id="Vector_10" d="M200.866 31.5297H211.663V32.0084C211.663 35.1598 209.487 37.7183 206.808 37.7183H205.721C203.042 37.7183 200.866 35.1598 200.866 32.0084V31.5297Z" fill="#3F3D56"/>
<path id="Vector_11" d="M235.444 24.5515L216.816 19.8827L216.719 18.6086C216.712 18.5141 216.701 18.4204 216.688 18.327L225.498 13.7643C226.405 11.8437 227.948 12.9107 227.948 12.9107C227.948 12.9107 230.942 13.4442 230.306 10.0298C229.671 6.61538 225.589 9.06947 225.589 9.06947L214.885 12.9904L213.136 8.10417C212.598 6.60017 211.345 5.62216 209.958 5.62216H203.731C202.399 5.62216 201.185 6.52483 200.615 7.94079L198.564 13.0285L187.757 9.06947C187.757 9.06947 183.674 6.61538 183.039 10.0298C182.404 13.4442 185.398 12.9107 185.398 12.9107C185.398 12.9107 186.94 11.8437 187.847 13.7643L196.468 18.2292L196.3 18.648C196.125 19.0806 196.019 19.5451 195.982 20.0198L177.902 24.5515C176.38 24.9331 175.532 26.8533 176.142 28.537L176.568 29.7132C177.188 31.4222 179.015 32.0576 180.278 30.9421C180.727 30.5463 181.043 29.9692 181.043 29.129L196.193 24.9808C197.109 29.7086 200.706 33.2369 205.003 33.2369H207.951C212.313 33.2369 215.903 29.6195 216.781 24.8793L232.302 29.129C232.302 29.9692 232.619 30.5463 233.067 30.9421C234.33 32.0576 236.158 31.4222 236.777 29.7132L237.203 28.537C237.814 26.8533 236.966 24.9331 235.444 24.5515Z" fill="#3F3D56"/>
<path id="Vector_12" d="M226.768 5.36564L217.605 0C217.605 0 216.657 0.0478892 217.086 0.610793C217.514 1.1737 227.403 6.61537 227.403 6.61537L226.768 5.36564Z" fill="#F1C782"/>
<path id="Vector_13" d="M229.218 7.57565C229.218 7.57565 229.671 9.60294 231.214 10.7766C232.756 11.9503 241.375 14.8312 241.375 14.8312L242.645 13.8709L233.119 7.68235L229.944 7.25555L229.218 7.57565Z" fill="#F1C782"/>
<path id="Vector_14" d="M235.278 25.5626C235.278 25.5626 236.976 26.1981 238.645 25.2952C240.314 24.3923 247 17.3764 247 17.3764L246.991 15.6006L237.444 21.7456L235.437 24.6704L235.278 25.5626Z" fill="#F1C782"/>
<path id="Vector_15" d="M236.117 25.8131C236.117 25.8131 234.689 24.5575 232.861 24.7666C231.032 24.9757 222.76 29.0244 222.76 29.0244L222.273 30.7054L233.005 28.5832L235.718 26.5947L236.117 25.8131Z" fill="#F1C782"/>
<path id="Vector_16" d="M186.577 5.36564L195.74 0C195.74 0 196.688 0.0478892 196.26 0.610793C195.831 1.1737 185.942 6.61537 185.942 6.61537L186.577 5.36564Z" fill="#F1C782"/>
<path id="Vector_17" d="M184.128 7.57565C184.128 7.57565 183.674 9.60294 182.132 10.7766C180.589 11.9503 171.971 14.8312 171.971 14.8312L170.7 13.8709L180.227 7.68235L183.402 7.25555L184.128 7.57565Z" fill="#F1C782"/>
<path id="Vector_18" d="M178.068 25.5626C178.068 25.5626 176.369 26.1981 174.7 25.2952C173.031 24.3923 166.346 17.3764 166.346 17.3764L166.355 15.6006L175.901 21.7456L177.909 24.6704L178.068 25.5626Z" fill="#F1C782"/>
<path id="Vector_19" d="M177.229 25.8131C177.229 25.8131 178.656 24.5575 180.485 24.7666C182.313 24.9757 190.586 29.0244 190.586 29.0244L191.072 30.7054L180.34 28.5832L177.628 26.5947L177.229 25.8131Z" fill="#F1C782"/>
<path id="Vector_20" d="M228.084 11.0434C229.487 11.0434 230.624 9.70581 230.624 8.05582C230.624 6.40582 229.487 5.06824 228.084 5.06824C226.681 5.06824 225.543 6.40582 225.543 8.05582C225.543 9.70581 226.681 11.0434 228.084 11.0434Z" fill="#3F3D56"/>
<path id="Vector_21" d="M184.944 11.3102C186.347 11.3102 187.485 9.97257 187.485 8.32257C187.485 6.67258 186.347 5.33499 184.944 5.33499C183.541 5.33499 182.404 6.67258 182.404 8.32257C182.404 9.97257 183.541 11.3102 184.944 11.3102Z" fill="#3F3D56"/>
</g>
<g id="Group_6">
<path id="Vector_22" d="M127.822 131.233L127.581 100.046C127.568 98.392 128.515 96.9693 129.883 96.5863L136.48 94.739C137.127 94.5576 137.799 94.7314 138.321 95.2157C138.844 95.7 139.145 96.4267 139.147 97.2094L139.226 130.607C139.227 131.171 139.041 131.702 138.703 132.101C138.364 132.501 137.913 132.721 137.434 132.721H129.098C128.401 132.721 127.828 132.053 127.822 131.233Z" fill="#2F2E41"/>
<path id="Vector_23" d="M130.23 97.2424L130.86 97.0645V98.1854C130.86 98.5437 131.138 98.808 131.428 98.725L133.972 97.9965C134.343 97.8903 134.604 97.4918 134.604 97.0333V96.0066L135.823 95.6625C136.682 95.4196 137.507 96.2007 137.512 97.2629L137.669 129.653C137.675 130.989 136.776 132.077 135.664 132.077H129.373C128.686 132.077 128.127 131.412 128.121 130.586L127.879 100.847C127.865 99.132 128.841 97.6346 130.23 97.2424Z" fill="#F1C782"/>
</g>
<g id="Group_7">
<path id="uuid-f0f0303c-5b59-4c86-93e3-26367f99a071-96-77" d="M139.087 118.434C142.623 117.597 145.857 119.065 146.309 121.712C146.761 124.359 144.261 127.182 140.724 128.019C139.314 128.376 137.853 128.33 136.461 127.887L121.439 131.209L120.264 122.885L135.198 120.494C136.336 119.452 137.669 118.745 139.087 118.434Z" fill="#FFB4B4"/>
<path id="Vector_24" d="M81.2314 119.766C79.2949 117.884 78.3292 115.01 78.6481 112.079C78.967 109.148 80.517 106.653 82.7942 105.404C85.6469 103.839 89.0135 104.599 91.1717 107.294L106.179 126.035L131.301 119.76L131.46 119.72L132.422 129.474L102.199 140.15L81.2314 119.766Z" fill="#E4E4E4"/>
</g>
<path id="Vector_25" d="M95.8491 64.8264C98.2915 67.0076 100.01 70.1694 100.442 73.7402C100.76 76.3673 100.458 79.476 98.4463 82.3432C95.8012 86.1124 95.3728 93.0984 95.5098 98.5303C95.5944 101.882 93.1215 104.543 90.2898 104.152C84.2473 103.317 81.2776 120.762 76.8454 123.194C71.7436 125.994 67.3765 123.194 67.3765 123.194C67.3765 123.194 68.856 103.706 72.1109 98.1378C74.1564 94.6388 74.4415 81.9342 74.8107 76.8551C75.206 71.4179 77.6341 66.4081 81.5428 63.4677C85.1265 60.7718 90.0346 59.6336 95.8491 64.8264Z" fill="#2F2E41"/>
</g>
</g>
<defs>
<clipPath id="clip0_257_291">
<rect width="247" height="183" fill="white"/>
</clipPath>
</defs>
</svg>
