<svg xmlns="http://www.w3.org/2000/svg" viewBox="0 0 750 500"><g id="freepik--background-simple--inject-135"><path d="M625.21,452.47a261.19,261.19,0,0,0-33.56-7.67C540.18,436.75,421.53,434,364,436.43c-74.65,3.22-311.23,57.12-329.1,7.82S22.31,33.71,57,26.21s157.72,22,230.26,24.17,246-26.31,317.54-29.53,77.81,8.58,94.63,71.82S734.14,363.86,731,412.09C728.3,453.09,651.93,460.38,625.21,452.47Z" style="fill:#3BD3A7"></path><path d="M625.21,452.47a261.19,261.19,0,0,0-33.56-7.67C540.18,436.75,421.53,434,364,436.43c-74.65,3.22-311.23,57.12-329.1,7.82S22.31,33.71,57,26.21s157.72,22,230.26,24.17,246-26.31,317.54-29.53,77.81,8.58,94.63,71.82S734.14,363.86,731,412.09C728.3,453.09,651.93,460.38,625.21,452.47Z" style="fill:#fff;opacity:0.7000000000000001"></path></g><g id="freepik--Moutains--inject-135"><path d="M133.43,265.5c24.06-18.24,42.61-31.87,44.32-31.87,5.17,0,193.59,154,193.59,154" style="fill:none;stroke:#263238;stroke-miterlimit:10"></path><path d="M13.71,358.06s63.81-50,111.87-86.59" style="fill:none;stroke:#263238;stroke-miterlimit:10"></path><line x1="50.61" y1="295.56" x2="26.76" y2="282.36" style="fill:none;stroke:#263238;stroke-miterlimit:10"></line><line x1="75.49" y1="309.34" x2="56.78" y2="298.98" style="fill:none;stroke:#263238;stroke-miterlimit:10"></line><path d="M149.62,392.79c34.94,32.06,95.51,89.39,95.51,89.39" style="fill:none;stroke:#263238;stroke-miterlimit:10"></path><path d="M17.41,448s105.32-76.31,108.16-76.31c.67,0,7.61,6.09,17.85,15.41" style="fill:none;stroke:#263238;stroke-miterlimit:10"></path><path d="M223.1,418.73c6.3-2.79,11.62-4.86,13.49-4.86,5.69,0,112.91,42.69,112.91,42.69" style="fill:none;stroke:#263238;stroke-miterlimit:10"></path><path d="M193.16,433.16s11-5.63,22-10.81" style="fill:none;stroke:#263238;stroke-miterlimit:10"></path><polyline points="63.36 416.26 97.92 407.04 95.62 420.87 124.04 399.36 135.56 417.03 139.4 410.12 167.05 436.23 163.97 413.95 176.26 418.56" style="fill:none;stroke:#263238;stroke-miterlimit:10"></polyline><polyline points="55.68 325.63 153.99 277.24 134.79 309.5 160.9 292.6 170.89 311.8 180.1 289.53 192.39 324.09 198.54 271.87 214.67 289.53 220.04 280.31 250.76 291.83" style="fill:none;stroke:#263238;stroke-miterlimit:10"></polyline></g><g id="freepik--Clouds--inject-135"><path d="M671.68,75.29S668.21,51,648.78,47.53s-21.51,14.57-24.29,16-10.4-8.33-16.65-4.16-9.71,13.18-9.71,13.18-5.56-4.86-10.41-1.39-11.1,7.64-11.1,7.64-8.33-3.47-12.49-2.08-9,5.55-9,5.55H701.52S698.05,72.51,690.41,69,673.76,78.76,671.68,75.29Z" style="fill:#fff;stroke:#263238;stroke-miterlimit:10"></path><path d="M531.42,234.22s-7.09-49.6-46.77-56.69-43.94,29.76-49.61,32.6-21.26-17-34-8.51-19.84,26.93-19.84,26.93-11.34-9.92-21.26-2.83-22.68,15.59-22.68,15.59-17-7.09-25.51-4.25-18.42,11.34-18.42,11.34H592.36s-7.08-19.85-22.67-26.93S535.67,241.31,531.42,234.22Z" style="fill:#fff;stroke:#263238;stroke-miterlimit:10"></path><path d="M256.54,371.66s-7.09-49.61-46.77-56.69-43.94,29.76-49.61,32.6-21.26-17-34-8.51S106.3,366,106.3,366,95,356.07,85,363.16s-22.67,15.59-22.67,15.59-17-7.09-25.52-4.25-18.42,11.33-18.42,11.33H317.49S310.4,366,294.81,358.9,260.79,378.75,256.54,371.66Z" style="fill:#fff;stroke:#263238;stroke-miterlimit:10"></path><path d="M360.67,35.28s-2.09-14.64-13.81-16.73-13,8.78-14.64,9.62-6.27-5-10-2.51-5.85,8-5.85,8-3.35-2.93-6.28-.84-6.69,4.6-6.69,4.6-5-2.09-7.53-1.25a20.5,20.5,0,0,0-5.44,3.34h88.27s-2.1-5.85-6.7-7.94S361.92,37.37,360.67,35.28Z" style="fill:#fff;stroke:#263238;stroke-miterlimit:10"></path><path d="M129.5,213.6s-2.75-19.24-18.15-22-17,11.55-19.25,12.65-8.25-6.6-13.2-3.3-7.7,10.44-7.7,10.44-4.4-3.84-8.25-1.09-8.79,6-8.79,6-6.6-2.75-9.9-1.65-7.15,4.4-7.15,4.4h116s-2.75-7.7-8.8-10.44S131.15,216.35,129.5,213.6Z" style="fill:#fff;stroke:#263238;stroke-miterlimit:10"></path></g><g id="freepik--Plants--inject-135"><path d="M353.43,470.91s-20.82-10.49-46.08-9.94-39.1,17-46,17c-2.76,0-10.62-5.1-20.55-10.95-.95-4.33-4.17-17.57-7.4-13.54l-3.83,4.8s-6.71-17.26-9.11-12.95a24.78,24.78,0,0,0-2.88,7.67s-11.5-11.5-13.9-5.75a23.55,23.55,0,0,0-1,3.18,32.57,32.57,0,0,0-8.28-.42,20.42,20.42,0,0,0-.26-3.72c-.79-5.14-5.49,2.43-7.11,5.25l-.41.12a19.45,19.45,0,0,0-.15-7.29c-1-3.35-4.31,4.32-4.31,4.32s1.92-5.75-.48-10.07-7.19,12.46-7.19,12.46l-3.36-1.91c-2.69-1.54-2,8.35-1.6,12.31-5.65,5.27-9,10.73-13.62,13-8.37,4.19-24.05-7-36.82-6.17-3.78-3.15-12.46-10.09-11.71-6.71a30.14,30.14,0,0,0,3.83,8.63s-16.3-5.75-16.78-1.92,6.72,6.71,6.72,6.71-11.51-.48-9.59,1.44c0,0-11.51,4.8-8.15,6.71s9.59.48,9.59.48-12,4.32-9.59,5.75c.71.43,3.11.27,6.13-.18-2.78,3-4.53,5.15-4.53,5.15L61.6,499.56H354.72l8.64-25.93Z" style="fill:#3BD3A7"></path><path d="M353.43,470.91s-20.82-10.49-46.08-9.94-39.1,17-46,17c-2.76,0-10.62-5.1-20.55-10.95-.95-4.33-4.17-17.57-7.4-13.54l-3.83,4.8s-6.71-17.26-9.11-12.95a24.78,24.78,0,0,0-2.88,7.67s-11.5-11.5-13.9-5.75a23.55,23.55,0,0,0-1,3.18,32.57,32.57,0,0,0-8.28-.42,20.42,20.42,0,0,0-.26-3.72c-.79-5.14-5.49,2.43-7.11,5.25l-.41.12a19.45,19.45,0,0,0-.15-7.29c-1-3.35-4.31,4.32-4.31,4.32s1.92-5.75-.48-10.07-7.19,12.46-7.19,12.46l-3.36-1.91c-2.69-1.54-2,8.35-1.6,12.31-5.65,5.27-9,10.73-13.62,13-8.37,4.19-24.05-7-36.82-6.17-3.78-3.15-12.46-10.09-11.71-6.71a30.14,30.14,0,0,0,3.83,8.63s-16.3-5.75-16.78-1.92,6.72,6.71,6.72,6.71-11.51-.48-9.59,1.44c0,0-11.51,4.8-8.15,6.71s9.59.48,9.59.48-12,4.32-9.59,5.75c.71.43,3.11.27,6.13-.18-2.78,3-4.53,5.15-4.53,5.15L61.6,499.56H354.72l8.64-25.93Z" style="opacity:0.19"></path><path d="M267.93,499.56l1.19,0c-1.16,0-11.22-3.87-11.22-3.87l-1.16-2.7-8.12.77,1.54-5.42s-7,3.1-8.89,2.71.77-4.64.77-4.64l-3.87-4.64-2.71,5-6.58-7.36s-.77,10.06-1.93,14.32-16.25-7.35-16.25-7.35-2.71,4.25-4.65,6.58-5.8-9.29-5.8-9.29-10.06,6.19-13.54,6.19,2.71-5.8,2.71-5.8-12.77.77-16.64,0,1.93-3.49,6.19-4.65-16.25-3.09-16.25-3.09l-7.35,6.19s5.8,10.06,7,11.61S148,491.81,148,491.81l-4.64,3.48-4.64-4.65a14.12,14.12,0,0,1-2.71,5.81c-2.32,3.09-26.31-3.48-26.31-3.48s-5.42,1.16-8.9,1.93.77-2.71,1.93-4.64-17.8,4.12-17.8,4.12L61.6,499.56Z" style="opacity:0.30000000000000004"></path></g><g id="freepik--Device--inject-135"><path d="M158,70.19s3.9,10.19,4.41,15.62.17,20.56-.17,21.41-27.68,6.62-27.68,6.62l-1.87-27.69-3.06.34s2,19.54,1.87,23.61.85,6,1.87,6.29,4.92-.34,4.92-.34,25.82-6.12,27.35-7.14.85-3.9.85-3.9-.34-21.4-.85-24.46-4.25-11.21-4.25-11.21Z" style="fill:#c9c9c9;stroke:#263238;stroke-linecap:round;stroke-linejoin:round;stroke-width:0.75px"></path><path d="M133.53,92.84h-2.68V86.1a1.34,1.34,0,0,1,1.34-1.34h0a1.34,1.34,0,0,1,1.34,1.34Z" style="fill:#263238;stroke:#263238;stroke-linecap:round;stroke-linejoin:round"></path><polygon points="136.4 91.22 136.4 101.99 145.37 103.79 145.37 93.69 136.4 91.22" style="fill:#c9c9c9;stroke:#263238;stroke-linecap:round;stroke-linejoin:round;stroke-width:0.75px"></polygon><polygon points="136.4 91.22 134.38 91.9 134.38 102.67 136.4 101.99 136.4 91.22" style="fill:#c9c9c9;stroke:#263238;stroke-linecap:round;stroke-linejoin:round;stroke-width:0.75px"></polygon><polygon points="145.37 103.79 143.35 104.46 134.38 102.67 136.4 101.99 145.37 103.79" style="fill:#c9c9c9;stroke:#263238;stroke-linecap:round;stroke-linejoin:round;stroke-width:0.75px"></polygon><path d="M140.68,92.15c-1.54,0-2.8,2.17-2.8,4.84s1.26,4.84,2.8,4.84h6.06V92.15Z" style="fill:#fff;stroke:#263238;stroke-linecap:round;stroke-linejoin:round"></path><path d="M149.54,97c0,2.67-1.25,4.84-2.8,4.84s-2.8-2.17-2.8-4.84,1.25-4.84,2.8-4.84S149.54,94.32,149.54,97Z" style="fill:#fff;stroke:#263238;stroke-linecap:round;stroke-linejoin:round"></path><ellipse cx="146.74" cy="96.99" rx="2.01" ry="3.46" style="fill:#263238;stroke:#263238;stroke-linecap:round;stroke-linejoin:round;stroke-width:0.5px"></ellipse><path d="M133.53,92.84l-4-.37v6.65l4,.36c1.45,0,2.61-1.48,2.61-3.32S135,92.84,133.53,92.84Z" style="fill:#263238;stroke:#263238;stroke-linecap:round;stroke-linejoin:round"></path><ellipse cx="129.54" cy="95.79" rx="2.61" ry="3.32" style="fill:#fff;stroke:#263238;stroke-linecap:round;stroke-linejoin:round"></ellipse><path d="M130.74,36.14h-4.45V30.79a2.23,2.23,0,0,1,2.22-2.23h0a2.23,2.23,0,0,1,2.23,2.23Z" style="fill:#c9c9c9;stroke:#263238;stroke-linecap:round;stroke-linejoin:round;stroke-width:0.75px"></path><path d="M127.79,33.92h1.55a3.72,3.72,0,0,1,3.72,3.72V41.7a0,0,0,0,1,0,0h-9a0,0,0,0,1,0,0V37.64A3.72,3.72,0,0,1,127.79,33.92Z" style="fill:#263238;stroke:#263238;stroke-linecap:round;stroke-linejoin:round"></path><path d="M191.56,53h-4.45V47.66a2.23,2.23,0,0,1,2.22-2.22h0a2.23,2.23,0,0,1,2.23,2.22Z" style="fill:#c9c9c9;stroke:#263238;stroke-linecap:round;stroke-linejoin:round;stroke-width:0.75px"></path><path d="M188.61,50.8h1.55a3.72,3.72,0,0,1,3.72,3.72v4.06a0,0,0,0,1,0,0h-9a0,0,0,0,1,0,0V54.52A3.72,3.72,0,0,1,188.61,50.8Z" style="fill:#263238;stroke:#263238;stroke-linecap:round;stroke-linejoin:round"></path><path d="M71.47,54.09H67V48.73a2.22,2.22,0,0,1,2.23-2.22h0a2.22,2.22,0,0,1,2.22,2.22Z" style="fill:#c9c9c9;stroke:#263238;stroke-linecap:round;stroke-linejoin:round;stroke-width:0.75px"></path><path d="M68.52,51.86h1.55a3.72,3.72,0,0,1,3.72,3.72v4.06a0,0,0,0,1,0,0h-9a0,0,0,0,1,0,0V55.58A3.72,3.72,0,0,1,68.52,51.86Z" style="fill:#263238;stroke:#263238;stroke-linecap:round;stroke-linejoin:round"></path><path d="M123,48.79s-23.78,5.43-33.81,7.47S74.42,58,74.42,58s-4.76-2.21-8.5-.68-3.73,7,.34,7.81,9.18-1.19,9.18-1.19,24.79,5.27,26,6.29-.34,5.6,1,7,5.27,1.53,5.27,1.53,0,4.08,1.53,5.27,12.91,2.71,12.91,2.71,12.23-.34,13.58-.85,12.74-9.51,13.42-11.55,1.19-4.92,2-4.92,9.68,1,10.19,0a15.66,15.66,0,0,0,.85-3.4s19.7-3.4,20.72-3.06,6.8,1,9.86.17,4.07-3.73,2.88-4.92-8-2.38-10.36-2a15.52,15.52,0,0,1-3.73.17s-30.07-4.42-35.84-5.1-10-1.86-10.88-2.88l-.84-1s2.88-3.23,2-5.1-3.39-2.89-7.13-3.23-7.3,1-7.81,3.23A4.41,4.41,0,0,0,124,47.6Z" style="fill:#fff;stroke:#263238;stroke-linecap:round;stroke-linejoin:round"></path><path d="M133.31,70.5,134,70s2.12-12.93,2.12-14.35S133.57,52.41,133,51a4.17,4.17,0,0,1,.3-3.14,11.1,11.1,0,0,0,1.82-2.62c.51-1.22,1.52-2.73-2.73-4a37,37,0,0,0-9.7-1l-1.41,1.53a1.57,1.57,0,0,0-.11.35A4.41,4.41,0,0,0,124,47.6a6.91,6.91,0,0,1-1.86,3.9c-1.72,1.82-6.37,4.55-10.51,5.46S76.67,61.1,74,60.7s-3.34-.91-6.57-1.62-3.94,1.11-3.94,1.11h-.12a3.8,3.8,0,0,0,2.94,4.9c4.08.85,9.18-1.19,9.18-1.19s24.79,5.27,26,6.29-.34,5.6,1,7,5.27,1.53,5.27,1.53,0,4.08,1.53,5.27,12.91,2.71,12.91,2.71,12.23-.34,13.58-.85a1,1,0,0,0,.17-.07Z" style="fill:#c9c9c9;stroke:#263238;stroke-linecap:round;stroke-linejoin:round;stroke-width:0.75px"></path><path d="M133.32,70.5s20.71,4.72,21.12,5.34.72,5.53.41,5.84S140,84.45,140,84.45a23.75,23.75,0,0,1-4.61,2.26c-1.85.51-6.36.71-7.49.2A13.45,13.45,0,0,1,125,84.55l-10.36-3.28-.51-5.33Z" style="fill:#263238;stroke:#263238;stroke-linecap:round;stroke-linejoin:round"></path><line x1="100.81" y1="55.64" x2="101.12" y2="56.66" style="fill:none;stroke:#263238;stroke-linecap:round;stroke-linejoin:round;stroke-width:0.75px"></line><line x1="102.14" y1="55.33" x2="102.45" y2="56.35" style="fill:none;stroke:#263238;stroke-linecap:round;stroke-linejoin:round;stroke-width:0.75px"></line><line x1="103.48" y1="55.02" x2="103.78" y2="56.05" style="fill:none;stroke:#263238;stroke-linecap:round;stroke-linejoin:round;stroke-width:0.75px"></line><line x1="104.81" y1="54.71" x2="105.12" y2="55.74" style="fill:none;stroke:#263238;stroke-linecap:round;stroke-linejoin:round;stroke-width:0.75px"></line><line x1="106.14" y1="54.41" x2="106.45" y2="55.43" style="fill:none;stroke:#263238;stroke-linecap:round;stroke-linejoin:round;stroke-width:0.75px"></line><line x1="107.48" y1="54.1" x2="107.78" y2="55.12" style="fill:none;stroke:#263238;stroke-linecap:round;stroke-linejoin:round;stroke-width:0.75px"></line><line x1="151.18" y1="53.61" x2="151.01" y2="54.68" style="fill:none;stroke:#263238;stroke-linecap:round;stroke-linejoin:round;stroke-width:0.75px"></line><line x1="152.51" y1="53.82" x2="152.35" y2="54.89" style="fill:none;stroke:#263238;stroke-linecap:round;stroke-linejoin:round;stroke-width:0.75px"></line><line x1="153.85" y1="54.03" x2="153.69" y2="55.09" style="fill:none;stroke:#263238;stroke-linecap:round;stroke-linejoin:round;stroke-width:0.75px"></line><line x1="155.19" y1="54.23" x2="155.02" y2="55.3" style="fill:none;stroke:#263238;stroke-linecap:round;stroke-linejoin:round;stroke-width:0.75px"></line><line x1="156.53" y1="54.44" x2="156.36" y2="55.51" style="fill:none;stroke:#263238;stroke-linecap:round;stroke-linejoin:round;stroke-width:0.75px"></line><line x1="157.87" y1="54.65" x2="157.7" y2="55.71" style="fill:none;stroke:#263238;stroke-linecap:round;stroke-linejoin:round;stroke-width:0.75px"></line><path d="M192.81,63.05a5,5,0,0,0,2.3-1.35c.26-.63.32-1.74-1.72-2.62-3-1.31-6.77-1.82-8.18-1.31a49.71,49.71,0,0,1-7.08,1l-25.67-.1L150,71h.08c.31-1,.65-1.67,1.07-1.67.85,0,9.68,1,10.19,0a15.66,15.66,0,0,0,.85-3.4s19.7-3.4,20.72-3.06S189.75,63.9,192.81,63.05Z" style="fill:#c9c9c9;stroke:#263238;stroke-linecap:round;stroke-linejoin:round;stroke-width:0.75px"></path><path d="M129.28,59.49s-3.23,7.64-3.74,14.6-1.36,23.78-1.7,24.63-25.47,6.63-26,6.63S96.67,83.44,98.2,78a43.79,43.79,0,0,0,1.69-8L96.5,69S94,77.66,93.61,83.27s-.85,25.64.51,26.49,31.42-6.62,32.61-7.47a2.91,2.91,0,0,0,1.53-2.72c0-1.19.68-24.63,1.19-26.49S132.68,60.68,133,60,131.83,56.94,129.28,59.49Z" style="fill:#c9c9c9;stroke:#263238;stroke-linecap:round;stroke-linejoin:round;stroke-width:0.75px"></path><line x1="117.01" y1="66.66" x2="117.01" y2="70.46" style="fill:none;stroke:#263238;stroke-linecap:round;stroke-linejoin:round;stroke-width:0.75px"></line><line x1="118.73" y1="66.1" x2="118.73" y2="69.89" style="fill:none;stroke:#263238;stroke-linecap:round;stroke-linejoin:round;stroke-width:0.75px"></line><line x1="120.44" y1="65.54" x2="120.44" y2="69.33" style="fill:none;stroke:#263238;stroke-linecap:round;stroke-linejoin:round;stroke-width:0.75px"></line><line x1="122.15" y1="64.98" x2="122.15" y2="68.77" style="fill:none;stroke:#263238;stroke-linecap:round;stroke-linejoin:round;stroke-width:0.75px"></line><line x1="129.12" y1="18.1" x2="123.37" y2="32.13" style="fill:none;stroke:#263238;stroke-linecap:round;stroke-linejoin:round;stroke-width:0.5px"></line><line x1="133.17" y1="17.09" x2="128.44" y2="26.56" style="fill:none;stroke:#263238;stroke-linecap:round;stroke-linejoin:round;stroke-width:0.5px"></line><line x1="140.27" y1="16.75" x2="130.59" y2="27.61" style="fill:none;stroke:#263238;stroke-linecap:round;stroke-linejoin:round;stroke-width:0.5px"></line><line x1="155.15" y1="19.63" x2="131.99" y2="31.29" style="fill:none;stroke:#263238;stroke-linecap:round;stroke-linejoin:round;stroke-width:0.5px"></line><line x1="148.75" y1="17.36" x2="132.68" y2="28.31" style="fill:none;stroke:#263238;stroke-linecap:round;stroke-linejoin:round;stroke-width:0.5px"></line><polyline points="121.68 33.99 109.39 43.45 114.98 43.69" style="fill:none;stroke:#263238;stroke-linecap:round;stroke-linejoin:round;stroke-width:0.5px"></polyline><line x1="122.19" y1="35.18" x2="116.78" y2="40.75" style="fill:none;stroke:#263238;stroke-linecap:round;stroke-linejoin:round;stroke-width:0.5px"></line><line x1="117.46" y1="43.29" x2="123.03" y2="37.03" style="fill:none;stroke:#263238;stroke-linecap:round;stroke-linejoin:round;stroke-width:0.5px"></line><line x1="186.58" y1="49.54" x2="149.57" y2="45.99" style="fill:none;stroke:#263238;stroke-linecap:round;stroke-linejoin:round;stroke-width:0.5px"></line><line x1="150.75" y1="48.53" x2="177.12" y2="50.22" style="fill:none;stroke:#263238;stroke-linecap:round;stroke-linejoin:round;stroke-width:0.5px"></line><line x1="156.67" y1="50.89" x2="172.72" y2="51.23" style="fill:none;stroke:#263238;stroke-linecap:round;stroke-linejoin:round;stroke-width:0.5px"></line><line x1="168.16" y1="52.92" x2="186.41" y2="50.56" style="fill:none;stroke:#263238;stroke-linecap:round;stroke-linejoin:round;stroke-width:0.5px"></line><line x1="193.18" y1="48.19" x2="225.8" y2="43.63" style="fill:none;stroke:#263238;stroke-linecap:round;stroke-linejoin:round;stroke-width:0.5px"></line><line x1="195.54" y1="48.7" x2="229.85" y2="47.18" style="fill:none;stroke:#263238;stroke-linecap:round;stroke-linejoin:round;stroke-width:0.5px"></line><line x1="194.02" y1="49.37" x2="224.27" y2="50.05" style="fill:none;stroke:#263238;stroke-linecap:round;stroke-linejoin:round;stroke-width:0.5px"></line><line x1="194.87" y1="50.89" x2="207.2" y2="51.57" style="fill:none;stroke:#263238;stroke-linecap:round;stroke-linejoin:round;stroke-width:0.5px"></line><line x1="191.99" y1="50.73" x2="201.63" y2="53.43" style="fill:none;stroke:#263238;stroke-linecap:round;stroke-linejoin:round;stroke-width:0.5px"></line><polyline points="25.31 48.52 67.59 50.22 36.83 55.97" style="fill:none;stroke:#263238;stroke-linecap:round;stroke-linejoin:round;stroke-width:0.5px"></polyline><line x1="30.41" y1="50.73" x2="51.03" y2="50.89" style="fill:none;stroke:#263238;stroke-linecap:round;stroke-linejoin:round;stroke-width:0.5px"></line><line x1="30.92" y1="53.77" x2="56.27" y2="51.23" style="fill:none;stroke:#263238;stroke-linecap:round;stroke-linejoin:round;stroke-width:0.5px"></line><line x1="72.67" y1="49.71" x2="103.6" y2="43.12" style="fill:none;stroke:#263238;stroke-linecap:round;stroke-linejoin:round;stroke-width:0.5px"></line><line x1="73.85" y1="50.73" x2="109.51" y2="47.85" style="fill:none;stroke:#263238;stroke-linecap:round;stroke-linejoin:round;stroke-width:0.5px"></line><line x1="73.34" y1="52.08" x2="84.33" y2="53.94" style="fill:none;stroke:#263238;stroke-linecap:round;stroke-linejoin:round;stroke-width:0.5px"></line><line x1="78.24" y1="51.57" x2="107.65" y2="50.39" style="fill:none;stroke:#263238;stroke-linecap:round;stroke-linejoin:round;stroke-width:0.5px"></line><line x1="91.43" y1="47.51" x2="107.48" y2="45.65" style="fill:none;stroke:#263238;stroke-linecap:round;stroke-linejoin:round;stroke-width:0.5px"></line><path d="M130.9,60.38s-3,8.72-3.72,13.83-1.63,24.41-1.51,25.46,1.28.81,1.63-.12S128.81,74,128.81,74s3.37-12.67,3.37-13.37S131.83,59,130.9,60.38Z" style="fill:#fff"></path></g><g id="freepik--Arrow--inject-135"><line x1="154.98" y1="98.33" x2="157.47" y2="98.55" style="fill:none;stroke:#263238;stroke-linecap:round;stroke-linejoin:round"></line><line x1="162.6" y1="99.01" x2="242.02" y2="106.18" style="fill:none;stroke:#263238;stroke-linecap:round;stroke-linejoin:round;stroke-dasharray:5.144830226898193,5.144830226898193"></line><line x1="244.58" y1="106.41" x2="247.07" y2="106.63" style="fill:none;stroke:#263238;stroke-linecap:round;stroke-linejoin:round"></line><polygon points="245.17 111.47 254.22 107.28 246.07 101.53 245.17 111.47" style="fill:#263238"></polygon></g><g id="freepik--Character--inject-135"><path d="M691.1,336.77c0,27.33-16.17,49.5-36.12,49.5s-36.12-22.17-36.12-49.5S635,215.47,655,215.47,691.1,309.43,691.1,336.77Z" style="fill:#3BD3A7"></path><polygon points="675.23 351.07 664.3 355.12 666.49 348.53 661.26 356.24 656.04 358.17 655.67 336.55 674.67 311.3 664.49 321.49 666.21 314.41 661.34 324.64 655.56 330.41 654.98 296.63 652.91 345.9 634.9 326.81 644.8 340.26 635.47 339.23 646.99 343.24 652.7 351 651.7 374.75 645.06 370.25 651.49 379.67 648.44 449.64 657.66 449.64 656.1 361.62 675.23 351.07" style="fill:#878787"></polygon><path d="M674.85,296.74a7.85,7.85,0,0,1-6.57,8.82,7.85,7.85,0,0,1,6.57-8.82Z" style="fill:#fff"></path><path d="M685.74,312a7.85,7.85,0,0,1-6.57,8.82,7.83,7.83,0,0,1,6.57-8.82Z" style="fill:#fff"></path><path d="M685.73,341.82a7.83,7.83,0,0,1-9.15,6.09,7.83,7.83,0,0,1,9.15-6.09Z" style="fill:#fff"></path><path d="M626,341.82a7.83,7.83,0,0,0,9.15,6.09,7.83,7.83,0,0,0-9.15-6.09Z" style="fill:#fff"></path><path d="M673.16,329.45a7.85,7.85,0,0,1-6.57,8.83,7.85,7.85,0,0,1,6.57-8.83Z" style="fill:#fff"></path><path d="M670.34,280.1a7.83,7.83,0,0,1-6.57,8.82,7.85,7.85,0,0,1,6.57-8.82Z" style="fill:#fff"></path><path d="M663.85,292.79a7.83,7.83,0,0,1-6.57,8.82,7.85,7.85,0,0,1,6.57-8.82Z" style="fill:#fff"></path><path d="M679.25,283.55a7.83,7.83,0,0,1-6.57,8.82,7.85,7.85,0,0,1,6.57-8.82Z" style="fill:#fff"></path><path d="M629.21,283.55a7.83,7.83,0,0,0,6.57,8.82,7.85,7.85,0,0,0-6.57-8.82Z" style="fill:#fff"></path><path d="M671.75,264.59a7.85,7.85,0,0,1-6.57,8.82,7.85,7.85,0,0,1,6.57-8.82Z" style="fill:#fff"></path><path d="M668.56,248.11a7.84,7.84,0,0,1-4.14,10.19,7.86,7.86,0,0,1,4.14-10.19Z" style="fill:#fff"></path><path d="M645.72,243.81a7.84,7.84,0,0,1,3.75,10.34,7.85,7.85,0,0,1-3.75-10.34Z" style="fill:#fff"></path><path d="M656.37,263.51a7.85,7.85,0,0,1-.63,11,7.85,7.85,0,0,1,.63-11Z" style="fill:#fff"></path><path d="M655.81,234.18a7.85,7.85,0,0,1-.63,11,7.85,7.85,0,0,1,.63-11Z" style="fill:#fff"></path><path d="M631.9,296.74a7.85,7.85,0,0,0,6.57,8.82,7.85,7.85,0,0,0-6.57-8.82Z" style="fill:#fff"></path><path d="M625.7,314.79a7.85,7.85,0,0,0,6.57,8.82,7.85,7.85,0,0,0-6.57-8.82Z" style="fill:#fff"></path><path d="M642.17,321.34a7.83,7.83,0,0,0,6.57,8.82,7.85,7.85,0,0,0-6.57-8.82Z" style="fill:#fff"></path><path d="M646.67,296.33a7.85,7.85,0,0,0,3.77,10.34,7.85,7.85,0,0,0-3.77-10.34Z" style="fill:#fff"></path><path d="M635,362.88a7.83,7.83,0,0,0,8.25-7.27,7.85,7.85,0,0,0-8.25,7.27Z" style="fill:#fff"></path><path d="M667,359.24a7.82,7.82,0,0,0,9.34,5.79,7.82,7.82,0,0,0-9.34-5.79Z" style="fill:#fff"></path><path d="M638.73,280.1a7.83,7.83,0,0,0,6.57,8.82,7.85,7.85,0,0,0-6.57-8.82Z" style="fill:#fff"></path><path d="M638.67,265.44a7.85,7.85,0,0,0,6.57,8.82,7.83,7.83,0,0,0-6.57-8.82Z" style="fill:#fff"></path><path d="M745.26,357c0,20.74-12.28,37.56-27.41,37.56S690.44,377.72,690.44,357s12.27-92,27.41-92S745.26,336.23,745.26,357Z" style="fill:#3BD3A7"></path><polygon points="733.22 367.83 724.91 370.9 726.58 365.9 722.61 371.75 718.65 373.22 718.37 356.81 732.79 337.65 725.06 345.38 726.37 340.01 722.67 347.77 718.29 352.15 717.85 326.52 716.27 363.9 702.61 349.43 710.12 359.63 703.04 358.84 711.78 361.89 716.11 367.78 715.36 385.8 710.32 382.38 715.2 389.53 712.88 442.63 719.88 442.63 718.7 375.83 733.22 367.83" style="fill:#878787"></polygon><path d="M732.92,326.6a6,6,0,0,1-5,6.7,6,6,0,0,1,5-6.7Z" style="fill:#fff"></path><path d="M741.19,338.21a6,6,0,0,1-5,6.69,5.95,5.95,0,0,1,5-6.69Z" style="fill:#fff"></path><path d="M741.18,360.81a5.94,5.94,0,0,1-6.94,4.62,5.94,5.94,0,0,1,6.94-4.62Z" style="fill:#fff"></path><path d="M695.81,360.81a6,6,0,0,0,7,4.62,6,6,0,0,0-7-4.62Z" style="fill:#fff"></path><path d="M731.64,351.43a6,6,0,0,1-5,6.69,6.93,6.93,0,0,1,1.12-4.36A7,7,0,0,1,731.64,351.43Z" style="fill:#fff"></path><path d="M729.5,314a6,6,0,0,1-5,6.69,5.94,5.94,0,0,1,5-6.69Z" style="fill:#fff"></path><path d="M724.58,323.61a5.95,5.95,0,0,1-5,6.69,6,6,0,0,1,5-6.69Z" style="fill:#fff"></path><path d="M736.26,316.59a6,6,0,0,1-5,6.7,6,6,0,0,1,5-6.7Z" style="fill:#fff"></path><path d="M698.29,316.59a6,6,0,0,0,5,6.7,6,6,0,0,0-5-6.7Z" style="fill:#fff"></path><path d="M730.57,302.21a6,6,0,0,1-5,6.69,5.94,5.94,0,0,1,5-6.69Z" style="fill:#fff"></path><path d="M728.15,289.7a6,6,0,0,1-3.14,7.73,6,6,0,0,1,3.14-7.73Z" style="fill:#fff"></path><path d="M710.82,286.44a5.93,5.93,0,0,1,2.84,7.84,6,6,0,0,1-2.84-7.84Z" style="fill:#fff"></path><path d="M718.9,301.39a5.94,5.94,0,0,1-.48,8.33,6,6,0,0,1,.48-8.33Z" style="fill:#fff"></path><path d="M718.47,279.13a5.94,5.94,0,0,1-.48,8.33,6,6,0,0,1,.48-8.33Z" style="fill:#fff"></path><path d="M700.33,326.6a6,6,0,0,0,5,6.7,6,6,0,0,0-5-6.7Z" style="fill:#fff"></path><path d="M695.62,340.3a6,6,0,0,0,5,6.69,5.95,5.95,0,0,0-5-6.69Z" style="fill:#fff"></path><path d="M708.12,345.27a6,6,0,0,0,5,6.7,6,6,0,0,0-5-6.7Z" style="fill:#fff"></path><path d="M711.54,326.29a6,6,0,0,0,2.86,7.85,6,6,0,0,0-2.86-7.85Z" style="fill:#fff"></path><path d="M702.69,376.79a5.94,5.94,0,0,0,6.26-5.51,5.94,5.94,0,0,0-6.26,5.51Z" style="fill:#fff"></path><path d="M727,374a6,6,0,0,0,7.09,4.4A5.95,5.95,0,0,0,727,374Z" style="fill:#fff"></path><path d="M705.51,314a6,6,0,0,0,5,6.69,6,6,0,0,0-5-6.69Z" style="fill:#fff"></path><path d="M705.47,302.85a6,6,0,0,0,5,6.69,6.93,6.93,0,0,0-1.12-4.36A7,7,0,0,0,705.47,302.85Z" style="fill:#fff"></path><path d="M573.25,365s1.58-8.63-2.23-21.78c-4-1.08-7.78-2.14-8.77-2.47-1.83-.6,2.32-5.79,4.12-9.6-.62-1.28-1.29-2.59-2-3.91-2.36.31-5.62,1.48-7.45,1.15-2.66-.49,1.43-2.82,4.42-6.28a105.18,105.18,0,0,0-8.44-11.48c-9.57-11.36-18.75-19.6-28.24-25.26-2.24.75-5,1.44-6.95,1s-3.77-3.91-6.79-7.34c-11.24-3.78-23.29-4.56-37.15-3.08a57.29,57.29,0,0,0-17,4.74c-2.05,3.43.26,8.5-1.3,10-1.75,1.67-5.81-5.05-5.81-5.05l-.36-1.15c-20.3,11.66-34.94,30.78-34.94,30.78l77,66.58s-29.46-15.82-27.11-13S509.4,396,509.4,396l40.24-7.82-14.17-8.25Z" style="fill:#3BD3A7"></path><path d="M454.92,325.12s-3.67-4.48-6-5.94-7.26-1.34-7.26-1.34a21.2,21.2,0,0,0,4.19,5.35C448.32,325.28,454.92,325.12,454.92,325.12Z" style="fill:#fff"></path><path d="M460.52,341.09s-3.66-4.47-6-5.94-7.27-1.34-7.27-1.34a21,21,0,0,0,4.19,5.35C453.93,341.26,460.52,341.09,460.52,341.09Z" style="fill:#fff"></path><path d="M472.39,313.31s-1.9-5.47-3.57-7.64-6.36-3.77-6.36-3.77a21,21,0,0,0,2.09,6.47C466.14,311.19,472.39,313.31,472.39,313.31Z" style="fill:#fff"></path><path d="M479.38,334s-1.9-5.47-3.57-7.65-6.36-3.76-6.36-3.76a21.08,21.08,0,0,0,2.09,6.47C473.13,331.83,479.38,334,479.38,334Z" style="fill:#fff"></path><path d="M497.14,350.13s-1.89-5.46-3.57-7.64-6.36-3.77-6.36-3.77a21.16,21.16,0,0,0,2.1,6.47C490.9,348,497.14,350.13,497.14,350.13Z" style="fill:#fff"></path><path d="M491.36,310.27s1-5.7.55-8.41-3.75-6.37-3.75-6.37a21.26,21.26,0,0,0-1.29,6.68C486.91,305.41,491.36,310.27,491.36,310.27Z" style="fill:#fff"></path><path d="M516.22,315.92s4-4.21,5.11-6.7.39-7.38.39-7.38a21,21,0,0,0-4.76,4.85C515.2,309.4,516.22,315.92,516.22,315.92Z" style="fill:#fff"></path><path d="M499.19,333.28s2.77-5.08,3.26-7.78-1.49-7.23-1.49-7.23a21,21,0,0,0-3.39,5.9C496.56,327.24,499.19,333.28,499.19,333.28Z" style="fill:#fff"></path><path d="M529.36,332.13s5.53-1.69,7.77-3.28,4-6.22,4-6.22a21.18,21.18,0,0,0-6.54,1.85C531.71,326,529.36,332.13,529.36,332.13Z" style="fill:#fff"></path><path d="M537,352.61s5.7,1,8.41.62,6.4-3.7,6.4-3.7a21.13,21.13,0,0,0-6.67-1.34C541.94,348.2,537,352.61,537,352.61Z" style="fill:#fff"></path><path d="M516.81,348.85s5.69,1,8.41.62,6.39-3.7,6.39-3.7a21,21,0,0,0-6.66-1.34C521.71,344.44,516.81,348.85,516.81,348.85Z" style="fill:#fff"></path><path d="M525.2,369.94s5.13,2.69,7.84,3.13,7.21-1.6,7.21-1.6a21.25,21.25,0,0,0-6-3.29C531.21,367.21,525.2,369.94,525.2,369.94Z" style="fill:#fff"></path><path d="M420.07,342.26s6.12-7,0-19c0,0-15.12,10.09-13.83,8.3a159.48,159.48,0,0,0,7.93-15.25,3.75,3.75,0,0,0,.06-1.77,58.93,58.93,0,0,0-5.79-6c-3.17,2.42-7.79,5.77-7.21,4.2.4-1.08,1.68-4.39,2.95-7.69-1-.72-1.54-1.09-1.54-1.09l-55.33,67.71Z" style="fill:#3BD3A7"></path><path d="M361.25,350s-8.11-3.35-21.76-2.37c-1.9,3.67-3.72,7.17-4.25,8.07-1,1.67-5.18-3.48-8.53-6-1.38.34-2.8.72-4.24,1.16-.19,2.36.28,5.8-.44,7.52-1,2.49-2.46-2-5.21-5.63a103.82,103.82,0,0,0-13,5.86c-13.1,7-23.07,14.26-30.59,22.35.27,2.35.35,5.25-.5,7s-4.61,2.87-8.6,5.11c-6,10.2-9.31,21.82-10.75,35.69a57,57,0,0,0,1.1,17.61c2.93,2.72,8.37,1.51,9.51,3.36,1.26,2-6.15,4.63-6.15,4.63l-1.2.11c7.17,22.29,22.81,40.59,22.81,40.59l81.18-61.44S339,459.07,342.31,457.37s35.94-38.52,35.94-38.52l.73-41L368,390Z" style="fill:#3BD3A7"></path><path d="M297.61,457.37s-5.14,2.66-7.06,4.62-2.82,6.83-2.82,6.83a21.31,21.31,0,0,0,6.11-3C296.4,463.86,297.61,457.37,297.61,457.37Z" style="fill:#fff"></path><path d="M314.41,455.22s-5.15,2.65-7.06,4.62-2.83,6.83-2.83,6.83a21.18,21.18,0,0,0,6.11-3C313.19,461.71,314.41,455.22,314.41,455.22Z" style="fill:#fff"></path><path d="M289.7,437.83s-5.74.71-8.21,1.9-5,5.43-5,5.43a21,21,0,0,0,6.76-.7C286.33,443.5,289.7,437.83,289.7,437.83Z" style="fill:#fff"></path><path d="M311.34,435.29s-5.74.72-8.21,1.9-5,5.44-5,5.44a21,21,0,0,0,6.76-.7C308,441,311.34,435.29,311.34,435.29Z" style="fill:#fff"></path><path d="M330.88,421.29s-5.75.72-8.22,1.9-5,5.43-5,5.43a21.2,21.2,0,0,0,6.76-.69C327.5,427,330.88,421.29,330.88,421.29Z" style="fill:#fff"></path><path d="M290.69,418.64s-5.38-2.14-8.12-2.3-7,2.35-7,2.35a21.07,21.07,0,0,0,6.26,2.65C285,422,290.69,418.64,290.69,418.64Z" style="fill:#fff"></path><path d="M301.39,395.51s-3.29-4.76-5.49-6.41-7.14-1.92-7.14-1.92a21.05,21.05,0,0,0,3.76,5.67C294.8,395.14,301.39,395.51,301.39,395.51Z" style="fill:#fff"></path><path d="M314.83,415.77s-4.39-3.76-6.94-4.8-7.39-.05-7.39-.05a21.35,21.35,0,0,0,5.07,4.54C308.36,417.09,314.83,415.77,314.83,415.77Z" style="fill:#fff"></path><path d="M320,386s-.51-5.77-1.6-8.28-5.25-5.21-5.25-5.21a21.27,21.27,0,0,0,.45,6.79C314.45,382.45,320,386,320,386Z" style="fill:#fff"></path><path d="M341.62,382.78s2.18-5.35,2.36-8.09-2.29-7-2.29-7a21,21,0,0,0-2.7,6.24C338.32,377.07,341.62,382.78,341.62,382.78Z" style="fill:#fff"></path><path d="M333.72,401.79s2.18-5.36,2.36-8.1-2.29-7-2.29-7a21.15,21.15,0,0,0-2.7,6.24C330.43,396.07,333.72,401.79,333.72,401.79Z" style="fill:#fff"></path><path d="M356.1,398s3.7-4.45,4.69-7-.06-7.39-.06-7.39a20.94,20.94,0,0,0-4.46,5.13C354.68,391.53,356.1,398,356.1,398Z" style="fill:#fff"></path><path d="M396.22,299.14s-3.9-9.72-16.12-20.56c-4.71,1.44-9.22,2.79-10.43,3.1-2.23.56-1.35-7.33-2-12.32q-2.16-1.35-4.52-2.67c-2.18,1.82-4.73,5.08-6.79,5.91-3,1.19-.36-3.76.47-9.16A124.05,124.05,0,0,0,341,257.23c-16.9-5.37-31.42-7.83-44.6-7.51-1.78,2.18-4.18,4.67-6.4,5.41s-6.3-1.54-11.53-3.09c-13.75,3.35-26.41,10.24-39.47,20.56a68.12,68.12,0,0,0-14.13,15.62c.12,4.77,5.68,8.41,5,10.92-.7,2.8-9.08-1.39-9.08-1.39l-1.09-.94c-13.07,24.71-15.67,53.33-15.67,53.33L324.26,368.3s-39.82,2.8-35.63,4.19,62.88-1.39,62.88-1.39l35.62-33.53-19.56.69Z" style="fill:#3BD3A7"></path><path d="M251.38,334.3s-6.55-2.19-9.83-2.19-8.19,3.28-8.19,3.28a25.28,25.28,0,0,0,7.64,2.73C244.83,338.67,251.38,334.3,251.38,334.3Z" style="fill:#fff"></path><path d="M267.21,346.86s-6.55-2.19-9.82-2.19-8.2,3.28-8.2,3.28a25.39,25.39,0,0,0,7.65,2.73C260.66,351.22,267.21,346.86,267.21,346.86Z" style="fill:#fff"></path><path d="M261.49,311.25s-5.4-4.31-8.47-5.44-8.82.25-8.82.25a25.23,25.23,0,0,0,6.24,5.2C253.83,313.09,261.49,311.25,261.49,311.25Z" style="fill:#fff"></path><path d="M281.69,327.63s-5.39-4.31-8.47-5.44-8.82.25-8.82.25a25.23,25.23,0,0,0,6.24,5.2C274,329.47,281.69,327.63,281.69,327.63Z" style="fill:#fff"></path><path d="M309.94,332.65s-5.4-4.31-8.47-5.44-8.82.25-8.82.25a25.09,25.09,0,0,0,6.23,5.2C302.28,334.49,309.94,332.65,309.94,332.65Z" style="fill:#fff"></path><path d="M278.71,296.1s-2.65-6.38-4.8-8.85-7.85-4-7.85-4a25.1,25.1,0,0,0,3,7.56C271.11,294,278.71,296.1,278.71,296.1Z" style="fill:#fff"></path><path d="M307.4,286s1.32-6.78.89-10-4.3-7.7-4.3-7.7a24.92,24.92,0,0,0-1.72,7.93C302.22,280,307.4,286,307.4,286Z" style="fill:#fff"></path><path d="M301.28,314.34s-.45-6.89-1.68-9.93-6.11-6.36-6.11-6.36a25.15,25.15,0,0,0,.34,8.11C294.76,309.91,301.28,314.34,301.28,314.34Z" style="fill:#fff"></path><path d="M331,294s4.5-5.24,5.74-8.27.08-8.82.08-8.82a25.29,25.29,0,0,0-5.43,6C329.44,286.24,331,294,331,294Z" style="fill:#fff"></path><path d="M351.79,309.74s6.4-2.6,8.89-4.73,4.1-7.82,4.1-7.82a25.27,25.27,0,0,0-7.59,2.9C353.93,302.16,351.79,309.74,351.79,309.74Z" style="fill:#fff"></path><path d="M329,318.83s6.4-2.6,8.89-4.73,4.1-7.81,4.1-7.81a25.11,25.11,0,0,0-7.59,2.89C331.11,311.25,329,318.83,329,318.83Z" style="fill:#fff"></path><path d="M350.89,334.77s6.88-.55,9.9-1.83,6.26-6.21,6.26-6.21a25.19,25.19,0,0,0-8.11.47C355.21,328.19,350.89,334.77,350.89,334.77Z" style="fill:#fff"></path><polygon points="392.02 433.97 365.48 390.66 355.92 375.52 381.88 346.31 352.57 370.23 315.18 311.02 342.43 362.71 273.96 344.55 343.12 369.7 366.18 415.81 292.83 389.96 392.02 433.97" style="fill:#263238;stroke:#263238;stroke-linecap:round;stroke-linejoin:round"></polygon><path d="M742.72,415l-43.2-10.14,30.06,7.7L550.26,366.83s-14.77-9.76-18.33-12.84-14.27-4.62-14.27-4.62-98-13.08-98.82-12.84-10.7,4.62-14.78,9.76-2,8.73-2,8.73-14.26,6.67-15.79,7.18-1.53,6.17-1.53,6.17L363.82,374l-8.66,4.63L341.4,406.36l13.76,19.51-5.1,12.33,6.63,15.4-1.53,14.89L337.84,499.3H549.75l19.07-9.87,1.15,6.06L587.53,490l6.7,4.64,10.87-7.17-13.38-5.06,2.58-6.19,11-5.68,24.45,2.56,17.12-7.34L643.17,474l27.6,18.13,1.52-16L690.35,489,694,478.74l11.12,7.05,2.5-13.91L694,478.5l5.48-15.66,12-7.58-3.1,3.13,13,21.5,17.15-12.23V447.85l-11.95-2.11L741,436.62Z" style="fill:#c9c9c9"></path><polygon points="610.96 484.95 622.25 499.29 641.08 491.27 620.16 476.52 610.96 484.95" style="fill:#c9c9c9"></polygon><path d="M338.93,499.56l14.5-29.78,4.1-16.51s-6.84-11-6.84-13.77,4.78-12.37,4.78-12.37-13-17.21-13-19.28S348,390,353.43,380.33c3-5.35,17.81-9.62,30.39-12.38" style="fill:none;stroke:#263238;stroke-linecap:round;stroke-linejoin:round"></path><path d="M401.38,355.34c-.1-1.19-.17-2.3-.17-3.22,0-4.13,10.24-15.14,18.43-15.83S522,349.37,528.86,352.12s18.44,15.14,24.58,15.82,187,46.8,187,46.8" style="fill:none;stroke:#263238;stroke-linecap:round;stroke-linejoin:round"></path><path d="M383.82,368a15.79,15.79,0,0,1,1.69-4.82c1.48-2.08,8.44-5.06,15.87-7.79" style="fill:none;stroke:#263238;stroke-linecap:round;stroke-linejoin:round"></path><path d="M383.46,472.53,369.81,445l9.56-42.66s1.87-23.53,4.45-34.4" style="fill:none;stroke:#263238;stroke-linecap:round;stroke-linejoin:round"></path><path d="M401.38,355.34c9.75-3.56,20.31-6.66,20.31-6.66l157.69,58.49" style="fill:none;stroke:#263238;stroke-linecap:round;stroke-linejoin:round"></path><path d="M736.28,424.46s-46.35-11.68-49.67-11.68S656.52,423,656.52,423L662,456.71l33.74,37.84" style="fill:none;stroke:#263238;stroke-linecap:round;stroke-linejoin:round"></path><polyline points="368.45 487.67 375.27 478.73 594.4 402.35 620.34 403.73 656.52 422.99 661.98 456.71 677.68 474.6" style="fill:none;stroke:#263238;stroke-linecap:round;stroke-linejoin:round"></polyline><path d="M378,434.69s-2.05,10.32,1.37,11,95.57-17.2,95.57-17.2,30-10.32,32.76-11,40.28-8.95,43-9.63" style="fill:none;stroke:#263238;stroke-linecap:round;stroke-linejoin:round"></path><path d="M385.51,458.09s56.66-9.64,58.71-10.33,41.64-15.82,41.64-15.82" style="fill:none;stroke:#263238;stroke-linecap:round;stroke-linejoin:round"></path><line x1="586.21" y1="394.78" x2="496.1" y2="374.14" style="fill:none;stroke:#263238;stroke-linecap:round;stroke-linejoin:round"></line><polyline points="527.5 356.94 513.16 362.44 492.69 363.82 539.11 369.32" style="fill:none;stroke:#263238;stroke-linecap:round;stroke-linejoin:round"></polyline><polyline points="507.7 486.98 610.78 449.83 616.93 458.08 603.96 471.16 630.58 473.22 640.82 477.35" style="fill:none;stroke:#263238;stroke-linecap:round;stroke-linejoin:round"></polyline><path d="M494.21,136.71l-4.29-7.09s-.75-11.92-2.47-13.1-7.41-7.73-8.81-7-.53,1.61,0,2.37,4.09,4.29,4.09,4.29a37.86,37.86,0,0,0-4.62-1.82c-2.15-.65-3.33-1.61-3.87-.65s0,1.4.86,1.93,5.8,2.47,5.8,2.47a31.31,31.31,0,0,0-4.94-.21c-.86.21-1,1-.32,1.4a61.7,61.7,0,0,0,6,1.93s-3.86.43-5,.54.22,2,1.83,1.82,3.44,1.72,3.44,1.72.64,5,1.93,7.3,4,7.09,4,7.09Z" style="fill:#fff;stroke:#263238;stroke-linecap:round;stroke-linejoin:round"></path><path d="M488.31,126.51s-1.61-3-2.36-4.08-3.55-4.19-4.94-5.91-2,.33-1.18,1.83,2.47,5.8,2.47,5.8a12.13,12.13,0,0,0,.32,5.37c.86,2.14,3.76,2.79,3.76,2.79" style="fill:#fff;stroke:#263238;stroke-linecap:round;stroke-linejoin:round"></path><path d="M540.28,158.19a20.67,20.67,0,0,0-7.84,2.14,70.41,70.41,0,0,0-8.48,5.26s-7.3-6.65-9.88-7.4-10.31-13.75-12.89-16.33-5.79-6.65-6.22-6.65-11.28,6.87-11.39,7.51,5.37,13.32,9.35,19,4.72,7,4.72,7,.43,4.83,6.55,10,9.66,8.27,10.09,8.38,2.9,3.65,8.49,3.44,12.56-3.76,12.56-3.76S538.24,162.7,540.28,158.19Z" style="fill:#3BD3A7;stroke:#263238;stroke-linecap:round;stroke-linejoin:round"></path><path d="M511.5,159.47S503.23,166,501,167.53" style="fill:none;stroke:#263238;stroke-linecap:round;stroke-linejoin:round"></path><path d="M523.21,167.21s-3.33,10.3-3.55,15.78" style="fill:none;stroke:#263238;stroke-linecap:round;stroke-linejoin:round"></path><path d="M521.17,166.45s-4.51,10.2-5.16,16.75" style="fill:none;stroke:#263238;stroke-linecap:round;stroke-linejoin:round"></path><path d="M545.55,148.06s-5.7-.34-10.2,8.58-.93,18.88-.93,18.88l14.91-26.24A5.55,5.55,0,0,0,545.55,148.06Z" style="fill:#263238;stroke:#263238;stroke-linecap:round;stroke-linejoin:round"></path><path d="M582.49,152.26s10.79,2,14.21,4.67,7.19,9.89,8.63,12.59,2,4.31.72,5.57-4.14,2.16-4.14,2.7,8.63,15.28,7.19,21.76-2.33,11.32-2.33,11.32,2.33,8.63,1.25,13.85-9,13.48-15.1,13.48a34.73,34.73,0,0,1-9.53-1.08s2-61.31-1.26-71.2S579.62,151.72,582.49,152.26Z" style="fill:#263238;stroke:#263238;stroke-linecap:round;stroke-linejoin:round"></path><path d="M487,338.78a32.22,32.22,0,0,1-5.85,3.58c-2.8,1.22-11,4-13.82,4.41s-2.06,3.23.4,4.61,11.2,2.57,15.08,2,10.37-.58,12.62-.72,5.1.69,5.42-2.32a75.24,75.24,0,0,0-.09-9.16Z" style="fill:#fff;stroke:#263238;stroke-linecap:round;stroke-linejoin:round"></path><path d="M500.8,350.34c0-.44.07-.95.09-1.5-4.21.62-16.13,2.92-24.14,2.57-5.91-.26-9.45-1.73-11.27-2.79a4.08,4.08,0,0,0,2.2,2.76c2.46,1.39,11.2,2.57,15.08,2s10.37-.58,12.62-.72S500.48,353.35,500.8,350.34Z" style="fill:#fff;stroke:#263238;stroke-linecap:round;stroke-linejoin:round"></path><path d="M527.11,233.71l-3.77,3s-31.89,24.54-35.13,28.85-3,6.65-3,7.91,2.74,57.05,2.74,57.05-1.9,1.21-1.81,2.65.63,4.1.63,4.1l-1.11,2.23,1.23,2.27a22.13,22.13,0,0,0,7.86,1.82,27.86,27.86,0,0,0,6.28-.41,17.52,17.52,0,0,0,1.15-4.4c.22-2.18-.21-3.23.06-4.69s1.27-2.61,1.1-5.12.21-16.12.21-16.12l4.67-34.7,43-19.86s5,32,9,46.75,5.93,48.46,5.93,48.46-2.16,1.61-1.8,3.41a44.75,44.75,0,0,0,1.8,5.4v3.41s.18-.54,4.5-.36a28.94,28.94,0,0,0,7.73-.72s1.08-3.59,1.08-4.13,1.43-1.08,1.25-3.6-1.25-2.51-.89-5,2.87-20,2.87-26.43V304.91s2-56.28,2-57.36.54-7.73.54-7.73Z" style="fill:#263238;stroke:#263238;stroke-linecap:round;stroke-linejoin:round"></path><path d="M551.68,141s-5.92,1-5.92,1.8,1,6.43,1,6.43-6.17,2.7-9.64,11.18-5.92,37-6.18,38.83-1,24.17-1,24.17-3.79,6.5-4.34,8.13a10.17,10.17,0,0,0-.54,2.89s2.35,2.17,8.13,4.52l5.79,2.35,2-1.45.72,2.71s5.42,3.26,17.89,2.89,27.83-.9,28-3.25.73-10.12.73-14.64,3.07-14.82,2.17-24.58-1.09-15.36-1.09-15.36,1.09-22.41-1.81-28.19-5.06-9.58-5.06-9.58,1.27-2.71-2-5.78-11-4.7-11-4.7Z" style="fill:#3BD3A7;stroke:#263238;stroke-linecap:round;stroke-linejoin:round"></path><path d="M538.33,163.83s8.06-1.83,13.56.19" style="fill:none;stroke:#263238;stroke-linecap:round;stroke-linejoin:round"></path><path d="M546.39,156.69s-4.95,19.24-6,35.55" style="fill:none;stroke:#263238;stroke-linecap:round;stroke-linejoin:round"></path><line x1="539.61" y1="221.57" x2="539.98" y2="234.76" style="fill:none;stroke:#263238;stroke-linecap:round;stroke-linejoin:round"></line><path d="M535.94,178.31s13.57.55,18.88,2.94" style="fill:none;stroke:#263238;stroke-linecap:round;stroke-linejoin:round"></path><path d="M533.74,225.05s23.28,9,45.27,6" style="fill:none;stroke:#263238;stroke-linecap:round;stroke-linejoin:round"></path><path d="M513,195.77l-20.39-5a3.53,3.53,0,0,0-4.25,2.73h0a3.53,3.53,0,0,0,2.49,4.11l23.08,6.68a5.9,5.9,0,0,0,3.51-2.22c1.11-1.75,1.2-3.23.65-4.25S513,195.77,513,195.77Z" style="fill:#263238;stroke:#263238;stroke-linecap:round;stroke-linejoin:round"></path><path d="M490.36,192l-10.43-3.84c-.44-.16-1.49,0-1.24.71.16.47.83.62,1.26.8l9.95,4.18S491.57,192.89,490.36,192Z" style="fill:#9e9e9e;stroke:#263238;stroke-linecap:round;stroke-linejoin:round"></path><path d="M507.53,195.33l-18.36-6.78c-.59-.23-2,0-1.69,1,.22.67,1.14.88,1.71,1.13S504.77,197,506.9,198C506.9,198,509.16,196.65,507.53,195.33Z" style="fill:#9e9e9e;stroke:#263238;stroke-linecap:round;stroke-linejoin:round"></path><path d="M530.64,203.72s-4.34-2.78-5.27-4.07-2.77-4.9-4.25-5.83-5,.47-5.92.56-3.42-1-3.51-.19-.28,1.48.55,1.95a38.4,38.4,0,0,0,4.44,1.38,1.69,1.69,0,0,1,.65,2.13c-.37.92-3.15,2.87-3.79,3.14s-10.45-1-11.1-.92a1.08,1.08,0,0,0-.09,2c1.2.65,2.68,1.48,2.68,1.48s4.53,3.24,6,4.17,6,1.29,7.86,1.2a33.33,33.33,0,0,0,4.81-.84l6.29.84Z" style="fill:#fff;stroke:#263238;stroke-linecap:round;stroke-linejoin:round"></path><path d="M566.76,150.18a15.23,15.23,0,0,0-5.09,3.69,21.46,21.46,0,0,0-5.52,11.59c-1,8.83,4.88,13.71,6.51,15.57s24.17,49.27,24.75,50.43,3.6,2.32,4.06,1.51A20.12,20.12,0,0,0,593.1,229c0-.46-30.67-59-30.67-59s5-13.71,9.76-13.36,9.87,1.63,12.2,4.42,9.06,16.15,10.22,16.84.7-7.9-1.51-10.34-9-15.68-16.15-17.54C571.47,148.59,569.15,149.13,566.76,150.18Z" style="fill:#263238;stroke:#263238;stroke-linecap:round;stroke-linejoin:round"></path><path d="M575.88,153.82s-7.41-1.63-13.38,8.31-.9,15-.9,15-.9,5.78-.18,9.4l.72,3.61s-1.08,6.33-1.08,8v1.63s-5.79-.72-9.22,0-4.52,1.63-4.52,1.63-7.23-.18-9,.36-8.5.72-8.5.72l-.9,12.65s20.6,4.34,21.32,4.7,2.17.36,7.59.91a62.39,62.39,0,0,0,8.68.36s6.69.9,12.11-1.63,6.68-9.58,6.68-9.58S586.9,207,586.9,201s.36-9.76.36-9.76,1.45-6.51.73-11-.91-7.41-.91-7.41,1.81-4.7-1.26-11.38S579.49,153.46,575.88,153.82Z" style="fill:#3BD3A7;stroke:#263238;stroke-linecap:round;stroke-linejoin:round"></path><path d="M562.68,199.72s9.94,2.17,14.1,7.59" style="fill:none;stroke:#263238;stroke-linecap:round;stroke-linejoin:round"></path><path d="M564.85,189.78s10.85-2.35,16.45.72" style="fill:none;stroke:#263238;stroke-linecap:round;stroke-linejoin:round"></path><path d="M563.41,175s12.47-7.41,19.15-4" style="fill:none;stroke:#263238;stroke-linecap:round;stroke-linejoin:round"></path><path d="M549.13,203.16s.9,8.49.18,12.83" style="fill:none;stroke:#263238;stroke-linecap:round;stroke-linejoin:round"></path><path d="M561.06,201.53s7.59,6.87,8.67,14.1" style="fill:none;stroke:#263238;stroke-linecap:round;stroke-linejoin:round"></path><path d="M566.13,365.77s1,3.15,1.85,5.62a13.35,13.35,0,0,0,8.84,8.33c5.66,1.85,8.85-2.26,7.31-6s-5.77-9.07-5.77-9.07S568.19,363.86,566.13,365.77Z" style="fill:#fff;stroke:#263238;stroke-linecap:round;stroke-linejoin:round"></path><path d="M576.82,379.72c5.66,1.85,8.85-2.26,7.31-6-.11-.25-.22-.5-.35-.76a4.91,4.91,0,0,1-3.56,5c-3.7,1.13-7.3-1.33-9.26-3.6s-4.83-8.6-4.83-8.6,1,3.15,1.85,5.62A13.35,13.35,0,0,0,576.82,379.72Z" style="fill:#fff;stroke:#263238;stroke-linecap:round;stroke-linejoin:round"></path><path d="M540.79,106.49s-3.27,5.66-3,7.29.88,3.27.88,3.9-5.54,5.16-5,6.42,3,3.27,3,3.27,1.26,9.43,2,10.44,2.89.88,4.65.88a48.48,48.48,0,0,0,5.16-.51l.75,5.28,24.65-.75L575,116.8Z" style="fill:#fff;stroke:#263238;stroke-linecap:round;stroke-linejoin:round"></path><path d="M540,113.78s2.26-1.63,4.28-.12" style="fill:none;stroke:#263238;stroke-linecap:round;stroke-linejoin:round"></path><path d="M539.41,127.87s3.65.5,5.41-1.89" style="fill:none;stroke:#263238;stroke-linecap:round;stroke-linejoin:round"></path><path d="M539.28,115s5.92-.88,6.55-.13-.13,2.14-.13,2.14.38,3.9-1,4.66a4,4,0,0,1-3.93-.07C539.75,121,539.28,115,539.28,115Z" style="fill:#3BD3A7;stroke:#263238;stroke-linecap:round;stroke-linejoin:round"></path><path d="M539.28,115s-4-.75-4.27.38,1.35,4.52,1.35,4.52l2.3-2.26Z" style="fill:#3BD3A7;stroke:#263238;stroke-linecap:round;stroke-linejoin:round"></path><polygon points="545.83 114.92 550.98 115.42 550.98 116.55 545.7 117.05 545.83 114.92" style="fill:#263238;stroke:#263238;stroke-linecap:round;stroke-linejoin:round"></polygon><path d="M580.58,144.06c-3.26-3.07-11-4.7-11-4.7L551.68,141s-5.92,1-5.92,1.8,1,6.43,1,6.43,20.59-2.27,25.83-1.37,9.94,2,9.94,2S583.83,147.13,580.58,144.06Z" style="fill:#263238;stroke:#263238;stroke-linecap:round;stroke-linejoin:round"></path><path d="M549.47,110.26s-2,17.36-2.39,24,3,10.32,3,10.32A149.94,149.94,0,0,0,570,143.21c8.56-1.38,12.58-6.79,12.58-6.79l-1.89-3,2.39,1.76,1.26-3.14s-3.52-4.15-5.16-6-3.14-7.29-3.14-7.29Z" style="fill:#9e9e9e;stroke:#263238;stroke-linecap:round;stroke-linejoin:round"></path><path d="M554.72,116.25s-.56,11.15,1.71,15.88" style="fill:none;stroke:#263238;stroke-linecap:round;stroke-linejoin:round"></path><path d="M561.15,124s-.51,11.3,5.48,17.58" style="fill:none;stroke:#263238;stroke-linecap:round;stroke-linejoin:round"></path><path d="M568.15,118.89A40.87,40.87,0,0,0,570,127.4" style="fill:none;stroke:#263238;stroke-linecap:round;stroke-linejoin:round"></path><path d="M542.68,101.46s2.26-4.78,9.69-6.79S566.2,94,570,96.55s6.79,11.2,7,13.59a12.65,12.65,0,0,1,.12,3Z" style="fill:#263238;stroke:#263238;stroke-linecap:round;stroke-linejoin:round"></path><path d="M541.05,101.58s-2.27,5.79-2.14,6.17,36.85,12.82,38,12.32,2.77-6.41,1.89-7.67-35-12.07-35.85-12.2S541.55,101.58,541.05,101.58Z" style="fill:#263238;stroke:#263238;stroke-linecap:round;stroke-linejoin:round"></path></g></svg>
