<svg width="34" height="35" viewBox="0 0 34 35" fill="none" xmlns="http://www.w3.org/2000/svg">
<g id="calendar-day">
<path id="union-1" fill-rule="evenodd" clip-rule="evenodd" d="M10.6061 1.45833C11.3872 1.45833 12.0203 2.11125 12.0203 2.91666V4.37499H21.9193V2.91666C21.9193 2.11125 22.5524 1.45833 23.3334 1.45833C24.1144 1.45833 24.7476 2.11125 24.7476 2.91666V4.411C28.3206 4.77684 31.1112 7.88568 31.1112 11.6667V24.7917C31.1112 28.8187 27.9455 32.0833 24.0405 32.0833H9.89908C5.99403 32.0833 2.82837 28.8187 2.82837 24.7917V11.6667C2.82837 7.88568 5.61895 4.77684 9.19201 4.411V2.91666C9.19201 2.11125 9.82514 1.45833 10.6061 1.45833ZM5.89805 10.2083H28.0415C27.4591 8.50909 25.8877 7.29166 24.0405 7.29166H9.89908C8.0519 7.29166 6.48045 8.50909 5.89805 10.2083ZM28.2829 13.125H5.65665V24.7917C5.65665 27.2079 7.55605 29.1667 9.89908 29.1667H24.0405C26.3835 29.1667 28.2829 27.2079 28.2829 24.7917V13.125ZM8.48493 17.5C8.48493 16.6946 9.11807 16.0417 9.89908 16.0417H15.5556C16.3366 16.0417 16.9698 16.6946 16.9698 17.5V23.3333C16.9698 24.1387 16.3366 24.7917 15.5556 24.7917H9.89908C9.11807 24.7917 8.48493 24.1387 8.48493 23.3333V17.5ZM14.1415 18.9583H11.3132V21.875H14.1415V18.9583Z" fill="black" fill-opacity="0.5"/>
</g>
</svg>
