<svg width="33" height="44" viewBox="0 0 33 44" fill="none" xmlns="http://www.w3.org/2000/svg">
<path d="M9.61035 22.0068C9.61589 21.8132 9.65462 21.6361 9.72656 21.4756C9.7985 21.3151 9.90918 21.1602 10.0586 21.0107L18.376 12.959C18.6139 12.721 18.9072 12.6021 19.2559 12.6021C19.4883 12.6021 19.6986 12.6574 19.8867 12.7681C20.0804 12.8787 20.2326 13.0282 20.3433 13.2163C20.4595 13.4045 20.5176 13.6147 20.5176 13.8472C20.5176 14.1903 20.3875 14.4919 20.1274 14.752L12.6069 21.9985L20.1274 29.2534C20.3875 29.519 20.5176 29.8206 20.5176 30.1582C20.5176 30.3962 20.4595 30.6092 20.3433 30.7974C20.2326 30.9855 20.0804 31.1349 19.8867 31.2456C19.6986 31.3618 19.4883 31.4199 19.2559 31.4199C18.9072 31.4199 18.6139 31.2982 18.376 31.0547L10.0586 23.0029C9.90365 22.8535 9.7902 22.6986 9.71826 22.5381C9.64632 22.3721 9.61035 22.195 9.61035 22.0068Z" fill="white"/>
</svg>
