<svg width="15" height="15" viewBox="0 0 15 15" fill="none" xmlns="http://www.w3.org/2000/svg">
<g id="Interface essential/Magnifier " opacity="0.3">
<path id="Icon" fill-rule="evenodd" clip-rule="evenodd" d="M2.5386 4.79341C3.42998 2.65301 5.51851 1.25635 7.83709 1.25016C10.336 1.237 12.5579 2.83761 13.3368 5.21201C14.1158 7.58641 13.2738 10.1922 11.2528 11.6618C9.23171 13.1315 6.49328 13.1293 4.47459 11.6564L2.67459 13.4564C2.49158 13.6392 2.1951 13.6392 2.01209 13.4564C1.8293 13.2734 1.8293 12.9769 2.01209 12.7939L3.75584 11.0502C2.12703 9.40006 1.64722 6.9338 2.5386 4.79341ZM3.37432 8.85574C4.12274 10.6593 5.88442 11.8339 7.83709 11.8314V11.8064C10.4873 11.803 12.6387 9.66278 12.6558 7.01266C12.6584 5.05999 11.4837 3.29831 9.68017 2.54989C7.87663 1.80147 5.7998 2.21388 4.41905 3.59462C3.03831 4.97537 2.6259 7.0522 3.37432 8.85574Z" fill="black"/>
</g>
</svg>
