<svg width="19" height="21" viewBox="0 0 19 21" fill="none" xmlns="http://www.w3.org/2000/svg">
<g id="User (1) 2" clip-path="url(#clip0_421_441)">
<path id="Vector" d="M9.1875 10.5C10.5799 10.5 11.9152 9.94688 12.8998 8.96231C13.8844 7.97775 14.4375 6.64239 14.4375 5.25C14.4375 3.85761 13.8844 2.52226 12.8998 1.53769C11.9152 0.553123 10.5799 0 9.1875 0C7.79511 0 6.45975 0.553123 5.47519 1.53769C4.49062 2.52226 3.9375 3.85761 3.9375 5.25C3.9375 6.64239 4.49062 7.97775 5.47519 8.96231C6.45975 9.94688 7.79511 10.5 9.1875 10.5ZM7.31309 12.4688C3.27305 12.4688 0 15.7418 0 19.7818C0 20.4545 0.545508 21 1.21816 21H17.1568C17.8295 21 18.375 20.4545 18.375 19.7818C18.375 15.7418 15.102 12.4688 11.0619 12.4688H7.31309Z" fill="#3BD3A7"/>
</g>
<defs>
<clipPath id="clip0_421_441">
<rect width="18.375" height="21" fill="white"/>
</clipPath>
</defs>
</svg>
