<svg width="18" height="16" viewBox="0 0 18 16" fill="none" xmlns="http://www.w3.org/2000/svg">
<path d="M0 3H18C18 1.89688 17.1031 1 16 1H2C0.896875 1 0 1.89688 0 3ZM0 4V13C0 14.1031 0.896875 15 2 15H16C17.1031 15 18 14.1031 18 13V4H0ZM2 12.6656C2 11.7437 2.74688 11 3.66563 11H7.33437C8.25625 11 9 11.7469 9 12.6656C9 12.85 8.85 13 8.66562 13H2.33437C2.15 13 2 12.85 2 12.6656ZM5.5 6C6.03043 6 6.53914 6.21071 6.91421 6.58579C7.28929 6.96086 7.5 7.46957 7.5 8C7.5 8.53043 7.28929 9.03914 6.91421 9.41421C6.53914 9.78929 6.03043 10 5.5 10C4.96957 10 4.46086 9.78929 4.08579 9.41421C3.71071 9.03914 3.5 8.53043 3.5 8C3.5 7.46957 3.71071 6.96086 4.08579 6.58579C4.46086 6.21071 4.96957 6 5.5 6ZM11 6.5C11 6.225 11.225 6 11.5 6H15.5C15.775 6 16 6.225 16 6.5C16 6.775 15.775 7 15.5 7H11.5C11.225 7 11 6.775 11 6.5ZM11 8.5C11 8.225 11.225 8 11.5 8H15.5C15.775 8 16 8.225 16 8.5C16 8.775 15.775 9 15.5 9H11.5C11.225 9 11 8.775 11 8.5ZM11 10.5C11 10.225 11.225 10 11.5 10H15.5C15.775 10 16 10.225 16 10.5C16 10.775 15.775 11 15.5 11H11.5C11.225 11 11 10.775 11 10.5Z" fill="#DDDDDD"/>
</svg>
