<svg width="15" height="20" viewBox="0 0 15 20" fill="none" xmlns="http://www.w3.org/2000/svg">
<g clip-path="url(#clip0_867_919)">
<path d="M13.6154 7.5C13.6154 8.1617 13.393 9.03992 12.9643 10.0822C12.5421 11.1086 11.9513 12.2198 11.2875 13.3249C9.96078 15.5337 8.38802 17.6432 7.42186 18.8842C7.38008 18.9371 7.33826 18.9482 7.30769 18.9482C7.27697 18.9482 7.23488 18.937 7.19289 18.8834L6.40565 19.5L7.1947 18.8857C6.22864 17.6449 4.65514 15.5346 3.32787 13.3249C2.66407 12.2198 2.07331 11.1086 1.65113 10.0822C1.22239 9.03992 1 8.1617 1 7.5C1 3.88701 3.84985 1 7.30769 1C10.7655 1 13.6154 3.88701 13.6154 7.5ZM9.74636 5.03437C9.10413 4.37523 8.22746 4 7.30769 4C6.38793 4 5.51126 4.37523 4.86902 5.03437C4.22765 5.69262 3.8718 6.58 3.8718 7.5C3.8718 8.42 4.22765 9.30738 4.86902 9.96563C5.51126 10.6248 6.38793 11 7.30769 11C8.22746 11 9.10413 10.6248 9.74636 9.96563C10.3877 9.30738 10.7436 8.42 10.7436 7.5C10.7436 6.58 10.3877 5.69262 9.74636 5.03437Z" fill="#3BD3A7" stroke="#3BD3A7" stroke-width="2"/>
</g>
<defs>
<clipPath id="clip0_867_919">
<rect width="14.6154" height="20" fill="white"/>
</clipPath>
</defs>
</svg>
