<svg width="18" height="18" viewBox="0 0 18 18" fill="none" xmlns="http://www.w3.org/2000/svg">
<g id="Clock rotate left 1" clip-path="url(#clip0_421_39)">
<path id="Vector" d="M2.63672 2.63672L1.44141 1.44141C0.910547 0.910547 0 1.28672 0 2.03555V5.90625C0 6.37383 0.376172 6.75 0.84375 6.75H4.71445C5.4668 6.75 5.84297 5.83945 5.31211 5.30859L4.2293 4.22578C5.44922 3.00586 7.13672 2.25 9 2.25C12.7266 2.25 15.75 5.27344 15.75 9C15.75 12.7266 12.7266 15.75 9 15.75C7.56563 15.75 6.23672 15.3035 5.14336 14.5406C4.63359 14.1855 3.93398 14.3086 3.57539 14.8184C3.2168 15.3281 3.34336 16.0277 3.85312 16.3863C5.31562 17.4023 7.09102 18 9 18C13.9711 18 18 13.9711 18 9C18 4.02891 13.9711 0 9 0C6.51445 0 4.26445 1.00898 2.63672 2.63672ZM9 4.5C8.53242 4.5 8.15625 4.87617 8.15625 5.34375V9C8.15625 9.225 8.24414 9.43945 8.40234 9.59766L10.9336 12.1289C11.2641 12.4594 11.7984 12.4594 12.1254 12.1289C12.4523 11.7984 12.4559 11.2641 12.1254 10.9371L9.84023 8.65195V5.34375C9.84023 4.87617 9.46406 4.5 8.99648 4.5H9Z" fill="#3BD3A7"/>
</g>
<defs>
<clipPath id="clip0_421_39">
<rect width="18" height="18" fill="white"/>
</clipPath>
</defs>
</svg>
