<svg width="41" height="43" viewBox="0 0 41 43" fill="none" xmlns="http://www.w3.org/2000/svg">
<g id="Icon">
<rect id="Rectangle" x="0.137573" y="0.752686" width="40.367" height="42.1505" rx="10" fill="#F2F2F2"/>
<path id="Icon_2" fill-rule="evenodd" clip-rule="evenodd" d="M22.3394 13.3979H11.2385C9.56641 13.3979 8.21094 14.8132 8.21094 16.5591V27.0968C8.21094 28.8427 9.56641 30.2581 11.2385 30.2581H22.3394C24.0114 30.2581 25.3669 28.8427 25.3669 27.0968V23.8756L30.8355 27.9543C31.5034 28.4524 32.4312 27.9539 32.4312 27.0968V16.5591C32.4312 15.702 31.5034 15.2035 30.8355 15.7017L25.3669 19.7804V16.5591C25.3669 14.8132 24.0114 13.3979 22.3394 13.3979ZM11.2384 15.5054H22.3393C22.8966 15.5054 23.3485 15.9772 23.3485 16.5591V27.0968C23.3485 27.6788 22.8966 28.1505 22.3393 28.1505H11.2384C10.681 28.1505 10.2292 27.6788 10.2292 27.0968V16.5591C10.2292 15.9772 10.681 15.5054 11.2384 15.5054ZM30.4129 18.6056V25.0493L26.0936 21.828L30.4129 18.6056Z" fill="#FF5F34"/>
</g>
</svg>
