<svg width="18" height="18" viewBox="0 0 18 18" fill="none" xmlns="http://www.w3.org/2000/svg">
<g id="Shield 1" clip-path="url(#clip0_421_43)">
<path id="Vector" d="M9.00002 0C9.16173 0 9.32345 0.0351563 9.47111 0.101953L16.091 2.91094C16.8645 3.23789 17.441 4.00078 17.4375 4.92188C17.4199 8.40938 15.9856 14.7902 9.92814 17.6906C9.34103 17.9719 8.659 17.9719 8.07189 17.6906C2.01447 14.7902 0.580094 8.40938 0.562516 4.92188C0.559 4.00078 1.13556 3.23789 1.909 2.91094L8.53244 0.101953C8.67658 0.0351563 8.8383 0 9.00002 0ZM9.00002 2.34844V15.6375C13.8516 13.2891 15.1559 8.08945 15.1875 4.97109L9.00002 2.34844Z" fill="#3BD3A7"/>
</g>
<defs>
<clipPath id="clip0_421_43">
<rect width="18" height="18" fill="white"/>
</clipPath>
</defs>
</svg>
