<svg width="42" height="38" viewBox="0 0 42 38" fill="none" xmlns="http://www.w3.org/2000/svg">
<g id="Icon">
<rect id="Rectangle" x="0.481598" y="0.7957" width="41.2844" height="36.5591" rx="10" fill="#F2F2F2"/>
<path id="Icon_2" fill-rule="evenodd" clip-rule="evenodd" d="M13.8991 9.93549H28.3486C30.0587 9.93549 31.445 11.1631 31.445 12.6774V21.8025C31.4451 21.8123 31.4451 21.8221 31.445 21.8319V25.4731C31.445 26.9874 30.0587 28.2151 28.3486 28.2151H13.8991C12.189 28.2151 10.8027 26.9874 10.8027 25.4731V12.6774C10.8027 11.1631 12.189 9.93549 13.8991 9.93549ZM29.3809 19.6107V12.6774C29.3809 12.1726 28.9188 11.7634 28.3488 11.7634H13.8992C13.3292 11.7634 12.8671 12.1726 12.8671 12.6774V25.4731C12.8671 25.865 13.1457 26.1993 13.537 26.3292L24.5226 16.601C24.8947 16.2716 25.4801 16.2462 25.885 16.525L25.9822 16.601L29.3809 19.6107ZM16.3911 26.3871L25.2524 18.5406L29.3809 22.1958V25.4731C29.3809 25.9779 28.9188 26.3871 28.3488 26.3871H16.3911ZM14.9311 15.8763C14.9311 14.6144 16.0863 13.5914 17.5114 13.5914C18.9364 13.5914 20.0916 14.6144 20.0916 15.8763C20.0916 17.1383 18.9364 18.1613 17.5114 18.1613C16.0863 18.1613 14.9311 17.1383 14.9311 15.8763ZM18.0274 15.8763C18.0274 15.624 17.7963 15.4194 17.5113 15.4194C17.2263 15.4194 16.9953 15.624 16.9953 15.8763C16.9953 16.1287 17.2263 16.3333 17.5113 16.3333C17.7963 16.3333 18.0274 16.1287 18.0274 15.8763Z" fill="#FF5F34"/>
</g>
</svg>
