<svg width="18" height="14" viewBox="0 0 18 14" fill="none" xmlns="http://www.w3.org/2000/svg">
<path id="Vector " fill-rule="evenodd" clip-rule="evenodd" d="M2.47835 6.53758C2.28473 6.82797 2.28473 7.20479 2.47835 7.49518C2.80044 7.97828 3.27745 8.62073 3.89672 9.26059C5.14802 10.5535 6.89748 11.7538 9.06369 11.7538C11.2299 11.7538 12.9794 10.5535 14.2307 9.26059C14.8499 8.62073 15.3269 7.97828 15.649 7.49518C15.8426 7.20479 15.8426 6.82797 15.649 6.53758C15.3269 6.05447 14.8499 5.41202 14.2307 4.77216C12.9794 3.47927 11.2299 2.27897 9.06369 2.27897C6.89748 2.27897 5.14802 3.47927 3.89672 4.77216C3.27745 5.41202 2.80044 6.05447 2.47835 6.53758ZM16.749 7.01638C17.3739 6.71372 17.3738 6.71349 17.3737 6.71324L17.3726 6.71106L17.3701 6.70644L17.3622 6.69141C17.3556 6.67885 17.3461 6.66128 17.334 6.63903C17.3097 6.59454 17.2744 6.53129 17.2283 6.45194C17.1362 6.29334 17.0006 6.06992 16.8228 5.80325C16.4681 5.27119 15.9408 4.5601 15.2501 3.84642C13.8814 2.43222 11.7881 0.92543 9.06369 0.92543C6.33923 0.92543 4.24602 2.43222 2.87732 3.84642C2.1866 4.5601 1.65926 5.27119 1.30453 5.80325C1.12673 6.06992 0.991147 6.29334 0.899049 6.45194C0.852973 6.53129 0.817702 6.59454 0.793398 6.63903C0.781243 6.66128 0.771824 6.67885 0.765161 6.69141L0.757233 6.70644L0.754821 6.71106L0.754005 6.71264C0.753876 6.71289 0.753448 6.71372 1.37835 7.01638L1.31951 6.98788C1.00458 6.83535 0.592945 7.00809 0.753448 7.31904L1.37835 7.01638C0.753448 7.31904 0.753319 7.31879 0.753448 7.31904L0.754005 7.32012L0.754821 7.32169L0.757233 7.32631L0.765161 7.34135C0.771824 7.3539 0.781243 7.37147 0.793398 7.39372C0.817702 7.43821 0.852973 7.50147 0.899049 7.58081C0.991147 7.73941 1.12673 7.96283 1.30453 8.22951C1.65926 8.76156 2.1866 9.47266 2.87732 10.1863C4.24602 11.6005 6.33923 13.1073 9.06369 13.1073C11.7881 13.1073 13.8814 11.6005 15.2501 10.1863C15.9408 9.47266 16.4681 8.76156 16.8228 8.22951C17.0006 7.96283 17.1362 7.73941 17.2283 7.58081C17.2744 7.50147 17.3097 7.43821 17.334 7.39372C17.3461 7.37147 17.3556 7.3539 17.3622 7.34135L17.3701 7.32631L17.3726 7.32169L17.3734 7.32012C17.3735 7.31987 17.3739 7.31904 16.749 7.01638ZM16.749 7.01638L16.8074 7.04467C17.1226 7.19732 17.5343 7.02442 17.3737 6.71324L16.749 7.01638ZM9.0637 5.66284C8.29197 5.66284 7.66637 6.26885 7.66637 7.01639C7.66637 7.76393 8.29197 8.36993 9.0637 8.36993C9.83543 8.36993 10.461 7.76393 10.461 7.01639C10.461 6.26885 9.83543 5.66284 9.0637 5.66284ZM6.26903 7.01639C6.26903 5.52131 7.52025 4.3093 9.0637 4.3093C10.6072 4.3093 11.8584 5.52131 11.8584 7.01639C11.8584 8.51147 10.6072 9.72348 9.0637 9.72348C7.52025 9.72348 6.26903 8.51147 6.26903 7.01639Z" fill="#777777"/>
</svg>
