<svg width="19" height="21" viewBox="0 0 19 21" fill="none" xmlns="http://www.w3.org/2000/svg">
<g id="Calendar 2" clip-path="url(#clip0_421_439)">
<path id="Vector" d="M3.9375 1.3125V2.625H1.96875C0.881836 2.625 0 3.50684 0 4.59375V6.5625H18.375V4.59375C18.375 3.50684 17.4932 2.625 16.4062 2.625H14.4375V1.3125C14.4375 0.586523 13.851 0 13.125 0C12.399 0 11.8125 0.586523 11.8125 1.3125V2.625H6.5625V1.3125C6.5625 0.586523 5.97598 0 5.25 0C4.52402 0 3.9375 0.586523 3.9375 1.3125ZM18.375 7.875H0V19.0312C0 20.1182 0.881836 21 1.96875 21H16.4062C17.4932 21 18.375 20.1182 18.375 19.0312V7.875Z" fill="#3BD3A7"/>
</g>
<defs>
<clipPath id="clip0_421_439">
<rect width="18.375" height="21" fill="white"/>
</clipPath>
</defs>
</svg>
