<svg width="21" height="20" viewBox="0 0 21 20" fill="none" xmlns="http://www.w3.org/2000/svg">
<path d="M8.1 0H16.5C18.9853 0 21 1.91878 21 4.28571V15.7143C21 18.0812 18.9853 20 16.5 20H8.1C5.61472 20 3.6 18.0812 3.6 15.7143V13.4286C3.6 12.9552 4.00294 12.5714 4.5 12.5714C4.99706 12.5714 5.4 12.9552 5.4 13.4286V15.7143C5.4 17.1344 6.60883 18.2857 8.1 18.2857H16.5C17.9912 18.2857 19.2 17.1344 19.2 15.7143V4.28571C19.2 2.86555 17.9912 1.71429 16.5 1.71429H8.1C6.60883 1.71429 5.4 2.86555 5.4 4.28571V6.57143C5.4 7.04482 4.99706 7.42857 4.5 7.42857C4.00294 7.42857 3.6 7.04482 3.6 6.57143V4.28571C3.6 1.91878 5.61472 0 8.1 0Z" fill="#3BD3A7"/>
<path d="M11.282 9.53256L8.7364 7.10819C8.38492 6.77346 7.81508 6.77346 7.4636 7.10819C7.11213 7.44293 7.11213 7.98564 7.4636 8.32038L8.47721 9.28572H0.9C0.402944 9.28572 0 9.66947 0 10.1429C0 10.6162 0.402944 11 0.9 11H8.47721L7.4636 11.9653C7.11213 12.3001 7.11213 12.8428 7.4636 13.1775C7.81508 13.5123 8.38492 13.5123 8.7364 13.1775L11.282 10.7532C11.4588 10.5847 11.5467 10.3636 11.5456 10.1429C11.5467 9.9221 11.4588 9.701 11.282 9.53256Z" fill="#3BD3A7"/>
</svg>
