<svg width="21" height="20" viewBox="0 0 21 20" fill="none" xmlns="http://www.w3.org/2000/svg">
<path d="M11.328 1.63807C12.6176 0.00794709 14.4103 0 14.4103 0C14.4103 0 14.677 1.53259 13.3959 3.00897C12.028 4.58541 10.4733 4.32745 10.4733 4.32745C10.4733 4.32745 10.1813 3.08763 11.328 1.63807ZM10.6373 5.40103C11.3007 5.40103 12.5319 4.52641 14.1345 4.52641C16.8932 4.52641 17.9784 6.40908 17.9784 6.40908C17.9784 6.40908 15.8559 7.4499 15.8559 9.97542C15.8559 12.8244 18.5 13.8063 18.5 13.8063C18.5 13.8063 16.6517 18.7959 14.1551 18.7959C13.0084 18.7959 12.1169 18.0548 10.9087 18.0548C9.6775 18.0548 8.45568 18.8235 7.6599 18.8235C5.38013 18.8236 2.5 14.0904 2.5 10.2858C2.5 6.54251 4.93784 4.57885 7.22444 4.57885C8.71094 4.57885 9.86447 5.40103 10.6373 5.40103Z" fill="#1A1C29"/>
</svg>
