<svg width="69" height="69" viewBox="0 0 69 69" fill="none" xmlns="http://www.w3.org/2000/svg">
<g id="Frame">
<path id="Vector" fill-rule="evenodd" clip-rule="evenodd" d="M6.875 34.5C6.875 19.2425 19.2425 6.875 34.5 6.875C49.7575 6.875 62.125 19.2425 62.125 34.5C62.125 49.7575 49.7575 62.125 34.5 62.125C19.2425 62.125 6.875 49.7575 6.875 34.5ZM44.7283 29.3603C44.8983 29.1338 45.0213 28.8756 45.0901 28.6009C45.1589 28.3261 45.1721 28.0404 45.1288 27.7605C45.0856 27.4806 44.9869 27.2122 44.8384 26.971C44.69 26.7298 44.4948 26.5207 44.2644 26.356C44.034 26.1913 43.773 26.0744 43.4967 26.012C43.2204 25.9496 42.9345 25.9431 42.6557 25.9928C42.3769 26.0425 42.1108 26.1475 41.8731 26.3015C41.6354 26.4555 41.431 26.6555 41.2717 26.8897L32.103 39.7247L27.5017 35.1233C27.0988 34.748 26.566 34.5436 26.0155 34.5533C25.465 34.563 24.9397 34.7861 24.5504 35.1754C24.1611 35.5647 23.938 36.09 23.9283 36.6405C23.9186 37.191 24.123 37.7238 24.4983 38.1267L30.8733 44.5017C31.0915 44.7196 31.3544 44.8875 31.644 44.9937C31.9335 45.0998 32.2427 45.1417 32.55 45.1163C32.8573 45.091 33.1555 44.999 33.4237 44.8469C33.6919 44.6948 33.9238 44.4861 34.1033 44.2353L44.7283 29.3603Z" fill="#3BD3A7"/>
</g>
</svg>
