<svg width="21" height="21" viewBox="0 0 21 21" fill="none" xmlns="http://www.w3.org/2000/svg">
<path id="Vector" d="M20.4303 0.229844C20.8446 0.516954 21.062 1.01324 20.984 1.50953L18.359 18.572C18.2975 18.9699 18.0555 19.3185 17.7028 19.5154C17.35 19.7123 16.9276 19.7369 16.5543 19.581L11.6489 17.5425L8.83929 20.5818C8.47426 20.9796 7.90004 21.1109 7.39555 20.914C6.89105 20.7171 6.56293 20.2291 6.56293 19.6877V16.2588C6.56293 16.0947 6.62445 15.9388 6.73519 15.8199L13.6094 8.31813C13.8473 8.05973 13.8391 7.66188 13.593 7.41578C13.3469 7.16969 12.9491 7.15328 12.6907 7.38707L4.34808 14.7986L0.726404 12.9857C0.291638 12.7683 0.0127319 12.3336 0.0004272 11.8496C-0.0118775 11.3656 0.242419 10.9144 0.660779 10.6724L19.0358 0.172422C19.4746 -0.0777729 20.0161 -0.0531635 20.4303 0.229844Z" fill="#3BD3A7"/>
</svg>
