<svg width="25" height="25" viewBox="0 0 25 25" fill="none" xmlns="http://www.w3.org/2000/svg">
<g clip-path="url(#clip0_739_254)">
<path d="M20.0337 11.2793L20.5855 10.7275L18.9302 9.07227L15.898 6.04004L14.2427 4.38477L13.691 4.93652L12.5875 6.04004L2.8609 15.7666C2.35308 16.2744 1.98199 16.9043 1.77691 17.5928L0.0483971 23.4717C-0.0736732 23.8818 0.0386314 24.3262 0.346249 24.6289C0.653866 24.9316 1.09332 25.0439 1.50348 24.9268L7.3775 23.1982C8.06597 22.9932 8.69586 22.6221 9.20367 22.1143L18.9302 12.3877L20.0337 11.2793ZM7.81207 19.502L7.36773 20.6103C7.17242 20.7617 6.95269 20.874 6.71832 20.9473L2.89996 22.0703L4.02301 18.2568C4.09137 18.0176 4.20855 17.7978 4.35992 17.6074L5.46832 17.1631V18.7256C5.46832 19.1553 5.81988 19.5068 6.24957 19.5068H7.81207V19.502ZM17.7095 0.913086L17.0064 1.62109L15.9029 2.72461L15.3462 3.27637L17.0015 4.93164L20.0337 7.96387L21.689 9.61914L22.2408 9.06738L23.3443 7.96387L24.0523 7.25586C25.273 6.03516 25.273 4.05762 24.0523 2.83691L22.1334 0.913086C20.9127 -0.307617 18.9351 -0.307617 17.7144 0.913086H17.7095ZM15.3951 9.11621L8.36383 16.1475C8.06109 16.4502 7.56304 16.4502 7.26031 16.1475C6.95758 15.8447 6.95758 15.3467 7.26031 15.0439L14.2916 8.0127C14.5943 7.70996 15.0923 7.70996 15.3951 8.0127C15.6978 8.31543 15.6978 8.81348 15.3951 9.11621Z" fill="white"/>
</g>
<defs>
<clipPath id="clip0_739_254">
<rect width="25" height="25" fill="white"/>
</clipPath>
</defs>
</svg>
