<svg width="24" height="21" viewBox="0 0 24 21" fill="none" xmlns="http://www.w3.org/2000/svg">
<g id="House Solid 2" clip-path="url(#clip0_421_435)">
<path id="Vector" d="M23.6168 10.4795C23.6168 11.2178 23.0016 11.7961 22.3043 11.7961H20.9918L21.0205 18.3668C21.0205 18.4775 21.0123 18.5883 21 18.699V19.3594C21 20.2658 20.2658 21 19.3594 21H18.7031C18.658 21 18.6129 21 18.5678 20.9959C18.5104 21 18.4529 21 18.3955 21H17.0625H16.0781C15.1717 21 14.4375 20.2658 14.4375 19.3594V18.375V15.75C14.4375 15.024 13.851 14.4375 13.125 14.4375H10.5C9.77402 14.4375 9.1875 15.024 9.1875 15.75V18.375V19.3594C9.1875 20.2658 8.45332 21 7.54688 21H6.5625H5.2541C5.19258 21 5.13105 20.9959 5.06953 20.9918C5.02031 20.9959 4.97109 21 4.92188 21H4.26563C3.35918 21 2.625 20.2658 2.625 19.3594V14.7656C2.625 14.7287 2.625 14.6877 2.6291 14.6508V11.7961H1.3125C0.574219 11.7961 0 11.2219 0 10.4795C0 10.1104 0.123047 9.78223 0.410156 9.49512L10.9266 0.328125C11.2137 0.0410156 11.5418 0 11.8289 0C12.116 0 12.4441 0.0820312 12.6902 0.287109L23.1656 9.49512C23.4938 9.78223 23.6578 10.1104 23.6168 10.4795Z" fill="#3BD3A7"/>
</g>
<defs>
<clipPath id="clip0_421_435">
<rect width="23.625" height="21" fill="white"/>
</clipPath>
</defs>
</svg>
