<svg width="18" height="15" viewBox="0 0 18 15" fill="none" xmlns="http://www.w3.org/2000/svg">
<g id="eye-slash-solid 1" clip-path="url(#clip0_417_882)">
<path id="Vector" d="M1.09116 0.143351C0.798664 -0.0872735 0.373976 -0.033836 0.143351 0.258664C-0.0872736 0.551164 -0.033836 0.975852 0.258664 1.20648L16.9087 14.2565C17.2012 14.4871 17.6259 14.4337 17.8565 14.1412C18.0871 13.8487 18.0337 13.424 17.7412 13.1934L14.7824 10.8759C15.8962 9.73398 16.6499 8.45429 17.0296 7.54585C17.1224 7.32366 17.1224 7.07616 17.0296 6.85398C16.6105 5.84991 15.7302 4.38741 14.414 3.16679C13.0921 1.93491 11.2724 0.899914 8.99991 0.899914C7.08179 0.899914 5.48429 1.6396 4.23835 2.60991L1.09116 0.143351ZM6.2746 4.2046C6.99179 3.54929 7.95085 3.14991 8.99991 3.14991C11.2359 3.14991 13.0499 4.96398 13.0499 7.19991C13.0499 7.90023 12.8727 8.55835 12.5605 9.1321L11.4749 8.28273C11.7112 7.73991 11.773 7.11835 11.6099 6.50241C11.2977 5.33523 10.2655 4.55054 9.11804 4.50273C8.95491 4.4971 8.85929 4.67429 8.90991 4.83179C8.96898 5.01179 9.00273 5.20304 9.00273 5.40273C9.00273 5.6896 8.93523 5.9596 8.8171 6.19866L6.27741 4.20741L6.2746 4.2046ZM10.4905 10.9659C10.0293 11.1487 9.52585 11.2499 8.99991 11.2499C6.76398 11.2499 4.94991 9.43585 4.94991 7.19991C4.94991 7.00585 4.96398 6.81741 4.98929 6.63179L2.3371 4.5421C1.69585 5.37741 1.23741 6.20991 0.970227 6.85398C0.877414 7.07616 0.877414 7.32366 0.970227 7.54585C1.38929 8.54991 2.2696 10.0124 3.58585 11.233C4.90773 12.4649 6.72741 13.4999 8.99991 13.4999C10.3443 13.4999 11.5284 13.1371 12.5493 12.5859L10.4905 10.9659Z" fill="#1A1B1F"/>
</g>
<defs>
<clipPath id="clip0_417_882">
<rect width="18" height="14.4" fill="white"/>
</clipPath>
</defs>
</svg>
