<svg width="15" height="14" viewBox="0 0 15 14" fill="none" xmlns="http://www.w3.org/2000/svg">
<g clip-path="url(#clip0_856_351)">
<path d="M8.62386 0.46875C8.48584 0.182292 8.19418 0 7.87387 0C7.55355 0 7.26449 0.182292 7.12386 0.46875L5.44939 3.91406L1.7098 4.46615C1.3973 4.51302 1.13689 4.73177 1.04053 5.03125C0.944178 5.33073 1.0223 5.66146 1.24626 5.88281L3.9598 8.56771L3.31918 12.362C3.26709 12.6745 3.3973 12.9922 3.65512 13.1771C3.91293 13.362 4.25407 13.3854 4.53532 13.237L7.87647 11.4531L11.2176 13.237C11.4989 13.3854 11.84 13.3646 12.0978 13.1771C12.3556 12.9896 12.4858 12.6745 12.4338 12.362L11.7905 8.56771L14.5041 5.88281C14.728 5.66146 14.8088 5.33073 14.7098 5.03125C14.6108 4.73177 14.353 4.51302 14.0405 4.46615L10.2983 3.91406L8.62386 0.46875Z" fill="#3BD3A7"/>
</g>
<defs>
<clipPath id="clip0_856_351">
<rect width="15" height="13.3333" fill="white"/>
</clipPath>
</defs>
</svg>
