<svg width="30" height="22" viewBox="0 0 30 22" fill="none" xmlns="http://www.w3.org/2000/svg">
<path d="M3.33333 0C1.49479 0 0 1.60532 0 3.57981V17.8991C0 19.8736 1.49479 21.4789 3.33333 21.4789H26.6667C28.5052 21.4789 30 19.8736 30 17.8991V3.57981C30 1.60532 28.5052 0 26.6667 0H3.33333ZM6.66667 17.8991H3.33333V14.3192C5.17188 14.3192 6.66667 15.9246 6.66667 17.8991ZM3.33333 7.15962V3.57981H6.66667C6.66667 5.5543 5.17188 7.15962 3.33333 7.15962ZM23.3333 17.8991C23.3333 15.9246 24.8281 14.3192 26.6667 14.3192V17.8991H23.3333ZM26.6667 7.15962C24.8281 7.15962 23.3333 5.5543 23.3333 3.57981H26.6667V7.15962ZM15 5.36972C16.3261 5.36972 17.5979 5.93546 18.5355 6.94247C19.4732 7.94949 20 9.3153 20 10.7394C20 12.1636 19.4732 13.5294 18.5355 14.5364C17.5979 15.5434 16.3261 16.1092 15 16.1092C13.6739 16.1092 12.4021 15.5434 11.4645 14.5364C10.5268 13.5294 10 12.1636 10 10.7394C10 9.3153 10.5268 7.94949 11.4645 6.94247C12.4021 5.93546 13.6739 5.36972 15 5.36972Z" fill="#3BD3A7"/>
</svg>
