<svg width="18" height="18" viewBox="0 0 18 18" fill="none" xmlns="http://www.w3.org/2000/svg">
<g id="key-solid 1" clip-path="url(#clip0_417_880)">
<path id="Vector" d="M11.8125 12.375C15.2297 12.375 18 9.60469 18 6.1875C18 2.77031 15.2297 0 11.8125 0C8.39531 0 5.625 2.77031 5.625 6.1875C5.625 6.84492 5.72695 7.48125 5.9168 8.07539L0.246094 13.7461C0.0878906 13.9043 0 14.1187 0 14.3438V17.1562C0 17.6238 0.376172 18 0.84375 18H3.65625C4.12383 18 4.5 17.6238 4.5 17.1562V15.75H5.90625C6.37383 15.75 6.75 15.3738 6.75 14.9062V13.5H8.15625C8.38125 13.5 8.5957 13.4121 8.75391 13.2539L9.92461 12.0832C10.5187 12.273 11.1551 12.375 11.8125 12.375ZM13.2188 3.375C13.5917 3.375 13.9494 3.52316 14.2131 3.78688C14.4768 4.0506 14.625 4.40829 14.625 4.78125C14.625 5.15421 14.4768 5.5119 14.2131 5.77562C13.9494 6.03934 13.5917 6.1875 13.2188 6.1875C12.8458 6.1875 12.4881 6.03934 12.2244 5.77562C11.9607 5.5119 11.8125 5.15421 11.8125 4.78125C11.8125 4.40829 11.9607 4.0506 12.2244 3.78688C12.4881 3.52316 12.8458 3.375 13.2188 3.375Z" fill="#DDDDDD"/>
</g>
<defs>
<clipPath id="clip0_417_880">
<rect width="18" height="18" fill="white"/>
</clipPath>
</defs>
</svg>
