<svg width="23" height="18" viewBox="0 0 23 18" fill="none" xmlns="http://www.w3.org/2000/svg">
<g id="Solid Language 1" clip-path="url(#clip0_421_41)">
<path id="Vector" d="M0 4.5C0 3.25898 1.00898 2.25 2.25 2.25H9H10.6875H11.25H20.25C21.491 2.25 22.5 3.25898 22.5 4.5V13.5C22.5 14.741 21.491 15.75 20.25 15.75H11.25H10.6875H9H2.25C1.00898 15.75 0 14.741 0 13.5V4.5ZM11.25 4.5V13.5H20.25V4.5H11.25ZM6.26836 6.18398C6.15586 5.93086 5.90273 5.76562 5.625 5.76562C5.34727 5.76562 5.09414 5.93086 4.98164 6.18398L2.73164 11.2465C2.57344 11.6016 2.73516 12.0164 3.09023 12.1746C3.44531 12.3328 3.86016 12.1711 4.01836 11.816L4.33125 11.1094H6.91875L7.23164 11.816C7.38984 12.1711 7.80469 12.3293 8.15977 12.1746C8.51484 12.0199 8.67305 11.6016 8.51836 11.2465L6.26836 6.18398ZM5.625 8.19844L6.29297 9.70312H4.95703L5.625 8.19844ZM15.75 5.76562C16.1367 5.76562 16.4531 6.08203 16.4531 6.46875V6.60937H18H18.5625C18.9492 6.60937 19.2656 6.92578 19.2656 7.3125C19.2656 7.69922 18.9492 8.01562 18.5625 8.01562H18.4922L18.4359 8.17383C18.123 9.03164 17.6484 9.81211 17.0437 10.473C17.0754 10.4941 17.107 10.5117 17.1387 10.5293L17.8031 10.9266C18.1371 11.127 18.2426 11.5594 18.0457 11.8898C17.8488 12.2203 17.4129 12.3293 17.0824 12.1324L16.418 11.7352C16.2598 11.6402 16.1086 11.5418 15.9574 11.4363C15.5848 11.7 15.1875 11.9285 14.7621 12.1184L14.6355 12.1746C14.2805 12.3328 13.8656 12.1711 13.7074 11.816C13.5492 11.4609 13.7109 11.0461 14.066 10.8879L14.1926 10.8316C14.4176 10.7297 14.6355 10.6172 14.843 10.4871L14.4141 10.0582C14.1398 9.78398 14.1398 9.3375 14.4141 9.06328C14.6883 8.78906 15.1348 8.78906 15.409 9.06328L15.9223 9.57656L15.9398 9.59414C16.3758 9.13359 16.7309 8.59922 16.9875 8.01211H15.75H13.2188C12.832 8.01211 12.5156 7.6957 12.5156 7.30898C12.5156 6.92227 12.832 6.60586 13.2188 6.60586H15.0469V6.46523C15.0469 6.07852 15.3633 5.76211 15.75 5.76211V5.76562Z" fill="#3BD3A7"/>
</g>
<defs>
<clipPath id="clip0_421_41">
<rect width="22.5" height="18" fill="white"/>
</clipPath>
</defs>
</svg>
