<svg width="18" height="18" viewBox="0 0 18 18" fill="none" xmlns="http://www.w3.org/2000/svg">
<g id="envelope-solid 2">
<path id="Vector" d="M1.6875 2.25C0.755859 2.25 0 3.00586 0 3.9375C0 4.46836 0.249609 4.96758 0.675 5.2875L8.325 11.025C8.72578 11.3238 9.27422 11.3238 9.675 11.025L17.325 5.2875C17.7504 4.96758 18 4.46836 18 3.9375C18 3.00586 17.2441 2.25 16.3125 2.25H1.6875ZM0 6.1875V13.5C0 14.741 1.00898 15.75 2.25 15.75H15.75C16.991 15.75 18 14.741 18 13.5V6.1875L10.35 11.925C9.54844 12.5262 8.45156 12.5262 7.65 11.925L0 6.1875Z" fill="#DDDDDD"/>
</g>
</svg>
