<svg width="16" height="18" viewBox="0 0 16 18" fill="none" xmlns="http://www.w3.org/2000/svg">
<g id="user-solid 1" clip-path="url(#clip0_417_886)">
<path id="Vector" d="M7.875 9C9.06847 9 10.2131 8.52589 11.057 7.68198C11.9009 6.83807 12.375 5.69347 12.375 4.5C12.375 3.30653 11.9009 2.16193 11.057 1.31802C10.2131 0.474106 9.06847 0 7.875 0C6.68153 0 5.53693 0.474106 4.69302 1.31802C3.84911 2.16193 3.375 3.30653 3.375 4.5C3.375 5.69347 3.84911 6.83807 4.69302 7.68198C5.53693 8.52589 6.68153 9 7.875 9ZM6.26836 10.6875C2.80547 10.6875 0 13.493 0 16.9559C0 17.5324 0.467578 18 1.04414 18H14.7059C15.2824 18 15.75 17.5324 15.75 16.9559C15.75 13.493 12.9445 10.6875 9.48164 10.6875H6.26836Z" fill="#DDDDDD"/>
</g>
<defs>
<clipPath id="clip0_417_886">
<rect width="15.75" height="18" fill="white"/>
</clipPath>
</defs>
</svg>
